<?xml version="1.0" encoding="UTF-8"?>
<!DOCTYPE svg PUBLIC "-//W3C//DTD SVG 1.1//EN" "http://www.w3.org/Graphics/SVG/1.1/DTD/svg11.dtd">
<!-- Creator: CorelDRAW 2021 (64-Bit) -->
<svg xmlns="http://www.w3.org/2000/svg" xml:space="preserve" width="43.3494mm" height="43.3493mm" version="1.1" style="shape-rendering:geometricPrecision; text-rendering:geometricPrecision; image-rendering:optimizeQuality; fill-rule:evenodd; clip-rule:evenodd"
viewBox="0 0 9161.86 9161.84"
 xmlns:xlink="http://www.w3.org/1999/xlink"
 xmlns:xodm="http://www.corel.com/coreldraw/odm/2003">
 <defs>
  <style type="text/css">
   <![CDATA[
    .fil0 {fill:#FE6700}
    .fil1 {fill:white}
   ]]>
  </style>
 </defs>
 <g id="Capa_x0020_1">
  <metadata id="CorelCorpID_0Corel-Layer"/>
  <rect class="fil0" x="0.01" y="0.01" width="9161.84" height="9161.84"/>
  <g id="_2418365294672">
   <path class="fil1" d="M3816.99 4108.8c0,1056.96 -62.09,842.21 240.05,865.09 489.55,37.05 1045.97,65.79 1235.72,573.2 6.49,17.27 15.91,41.26 21.66,61.16 1.52,5.33 2.81,10.53 4.14,15.98 1.42,5.43 2.52,10.72 3.76,16.21 99.27,441.74 -42.73,837.94 -477.63,982.82 -88.91,29.61 -178.99,57.36 -304.3,57.36l-1908.78 0 0 1044.85 1848.54 0c848.95,0 1699.46,-395.56 1951.75,-1180.77 103.94,-323.28 96.16,-525.27 98.21,-946.57 2.16,-455.67 -252.92,-793.57 -551.66,-1018.68 -223.02,-168.11 -451.4,-245.21 -712.04,-332.77 -365.66,-122.86 -966.71,-198.18 -1389.03,-198.18 -46.29,0 -60.4,13.99 -60.4,60.3z"/>
   <path class="fil1" d="M2872.7 2461.18l1547.22 0c250.58,0 483.65,41.85 642.5,140.95 355.87,221.77 350.31,839.39 144.16,1087.86 -46.12,55.54 -63.91,43.9 -83.46,117.36 228.45,19.02 829.8,258.59 1024.6,361.66 101.79,-68.01 220.08,-251.63 273.17,-386.9 156,-395.9 142.17,-949.15 -38.4,-1334.75 -262.79,-561.03 -874.52,-1010.95 -1580.83,-1010.95l-1928.96 0 0 1024.77z"/>
  </g>
 </g>
</svg>
