<svg width="96" height="77" viewBox="0 0 96 77" fill="none" xmlns="http://www.w3.org/2000/svg">
<path d="M41.4795 8.2959L23.11 43.5535L13.9253 45.9237C14.9129 43.751 16.098 41.9733 17.4806 40.5906C19.0608 39.208 20.8385 38.5167 22.8137 38.5167C26.9617 38.5167 30.7146 40.1956 34.0724 43.5535C37.6278 46.9113 39.4055 51.2568 39.4055 56.5899C39.4055 61.923 37.4303 66.6635 33.4799 70.8114C29.727 74.7618 25.184 76.7371 19.8509 76.7371C14.5178 76.7371 9.87607 74.7618 5.92564 70.8114C1.97521 66.861 0 62.1205 0 56.5899C0 54.2196 0.493803 51.5531 1.48141 48.5903C2.46902 45.4299 4.14795 41.4795 6.51821 36.739L26.3691 0L41.4795 8.2959ZM95.9954 8.2959L77.6259 43.5535L68.4412 45.9237C69.4288 43.751 70.6139 41.9733 71.9965 40.5906C73.5767 39.208 75.3544 38.5167 77.3296 38.5167C81.4776 38.5167 85.2305 40.1956 88.5883 43.5535C92.1437 46.9113 93.9214 51.2568 93.9214 56.5899C93.9214 61.923 91.9462 66.6635 87.9958 70.8114C84.2429 74.7618 79.6999 76.7371 74.3668 76.7371C69.0337 76.7371 64.392 74.7618 60.4415 70.8114C56.4911 66.861 54.5159 62.1205 54.5159 56.5899C54.5159 54.2196 55.0097 51.5531 55.9973 48.5903C56.9849 45.4299 58.6639 41.4795 61.0341 36.739L80.885 0L95.9954 8.2959Z" fill="#333333"/>
</svg>
