<svg width="90" height="90" viewBox="0 0 90 90" fill="none" xmlns="http://www.w3.org/2000/svg">
<mask id="path-1-outside-1_302_279" maskUnits="userSpaceOnUse" x="1" y="5" width="87" height="81" fill="black">
<rect fill="white" x="1" y="5" width="87" height="81"/>
<path d="M41.8667 45.2083C41.8667 42.3007 40.838 39.8182 38.7807 37.7609C36.7234 35.7036 34.241 34.675 31.3333 34.675C28.4257 34.675 25.9432 35.7036 23.8859 37.7609C21.8286 39.8182 20.8 42.3007 20.8 45.2083C20.8 48.116 21.8286 50.5984 23.8859 52.6557C25.9432 54.713 28.4257 55.7417 31.3333 55.7417C34.241 55.7417 36.7234 54.713 38.7807 52.6557C40.838 50.5984 41.8667 48.116 41.8667 45.2083ZM73.4667 66.275C73.4667 64.8486 72.9455 63.6142 71.9031 62.5719C70.8608 61.5295 69.6264 61.0083 68.2 61.0083C66.7736 61.0083 65.5392 61.5295 64.4969 62.5719C63.4545 63.6142 62.9333 64.8486 62.9333 66.275C62.9333 67.7288 63.4477 68.97 64.4763 69.9987C65.505 71.0273 66.7462 71.5417 68.2 71.5417C69.6538 71.5417 70.8951 71.0273 71.9237 69.9987C72.9523 68.97 73.4667 67.7288 73.4667 66.275ZM73.4667 24.1417C73.4667 22.7153 72.9455 21.4809 71.9031 20.4385C70.8608 19.3962 69.6264 18.875 68.2 18.875C66.7736 18.875 65.5392 19.3962 64.4969 20.4385C63.4545 21.4809 62.9333 22.7153 62.9333 24.1417C62.9333 25.5955 63.4477 26.8367 64.4763 27.8654C65.505 28.894 66.7462 29.4083 68.2 29.4083C69.6538 29.4083 70.8951 28.894 71.9237 27.8654C72.9523 26.8367 73.4667 25.5955 73.4667 24.1417ZM57.6667 41.4641V49.076C57.6667 49.3503 57.5707 49.6178 57.3786 49.8784C57.1866 50.139 56.9672 50.283 56.7203 50.3104L50.3427 51.2979C50.041 52.258 49.6021 53.3003 49.026 54.425C49.9587 55.7417 51.1931 57.3189 52.7292 59.1568C52.9212 59.4585 53.0172 59.7328 53.0172 59.9797C53.0172 60.3089 52.9212 60.5694 52.7292 60.7615C52.0983 61.5844 50.9668 62.8119 49.3346 64.444C47.7025 66.0761 46.6259 66.8922 46.1047 66.8922C45.803 66.8922 45.5149 66.7962 45.2406 66.6042L40.5089 62.901C39.4939 63.4222 38.4378 63.8474 37.3406 64.1766C37.0389 67.1391 36.7234 69.2649 36.3943 70.5542C36.2023 71.2125 35.7908 71.5417 35.1599 71.5417H27.5068C27.205 71.5417 26.9307 71.4388 26.6839 71.2331C26.437 71.0273 26.2998 70.7873 26.2724 70.513L25.326 64.2177C24.3934 63.9434 23.3648 63.5182 22.2401 62.9422L17.3849 66.6042C17.1929 66.7962 16.9186 66.8922 16.562 66.8922C16.2602 66.8922 15.9722 66.7825 15.6979 66.563C11.7479 62.9148 9.77292 60.7203 9.77292 59.9797C9.77292 59.7328 9.86892 59.4722 10.0609 59.1979C10.3352 58.8139 10.8976 58.087 11.7479 57.0172C12.5983 55.9474 13.2429 55.1108 13.6818 54.5073C13.0509 53.3003 12.5708 52.1757 12.2417 51.1333L5.9875 50.1458C5.71319 50.1184 5.48003 49.9881 5.28802 49.7549C5.09601 49.5218 5 49.2543 5 48.9526V41.3406C5 41.0663 5.09601 40.7989 5.28802 40.5383C5.48003 40.2777 5.69948 40.1337 5.94635 40.1062L12.324 39.1187C12.6257 38.1587 13.0646 37.1163 13.6406 35.9917C12.708 34.675 11.4736 33.0977 9.9375 31.2599C9.74549 30.9582 9.64948 30.6839 9.64948 30.437C9.64948 30.1078 9.74549 29.8335 9.9375 29.6141C10.541 28.7911 11.6656 27.5705 13.3115 25.9521C14.9573 24.3337 16.0408 23.5245 16.562 23.5245C16.8637 23.5245 17.1517 23.6205 17.426 23.8125L22.1578 27.5156C23.0905 27.0219 24.1465 26.583 25.326 26.199C25.6278 23.2365 25.9432 21.1243 26.2724 19.8625C26.4644 19.2042 26.8759 18.875 27.5068 18.875H35.1599C35.4616 18.875 35.7359 18.9779 35.9828 19.1836C36.2297 19.3893 36.3668 19.6293 36.3943 19.9036L37.3406 26.199C38.2733 26.4733 39.3019 26.8984 40.4266 27.4745L45.2818 23.8125C45.5012 23.6205 45.7755 23.5245 46.1047 23.5245C46.4064 23.5245 46.6944 23.6342 46.9688 23.8536C50.9188 27.5019 52.8938 29.6964 52.8938 30.437C52.8938 30.6564 52.7977 30.917 52.6057 31.2187C52.2766 31.6576 51.7005 32.3983 50.8776 33.4406C50.0547 34.483 49.4375 35.3059 49.026 35.9094C49.6569 37.226 50.1233 38.3507 50.425 39.2833L56.6792 40.2297C56.9535 40.2845 57.1866 40.4286 57.3786 40.6617C57.5707 40.8949 57.6667 41.1623 57.6667 41.4641ZM84 63.3948V69.1552C84 69.5941 81.9564 70.0193 77.8693 70.4307C77.5401 71.1714 77.1286 71.8845 76.6349 72.5703C78.0339 75.67 78.7333 77.5627 78.7333 78.2484C78.7333 78.3582 78.6785 78.4542 78.5688 78.5365C75.2222 80.484 73.5215 81.4578 73.4667 81.4578C73.2472 81.4578 72.6163 80.8132 71.574 79.524C70.5316 78.2347 69.8184 77.3021 69.4344 76.726C68.8858 76.7809 68.4743 76.8083 68.2 76.8083C67.9257 76.8083 67.5142 76.7809 66.9656 76.726C66.5816 77.3021 65.8684 78.2347 64.826 79.524C63.7837 80.8132 63.1528 81.4578 62.9333 81.4578C62.8785 81.4578 61.1778 80.484 57.8313 78.5365C57.7215 78.4542 57.6667 78.3582 57.6667 78.2484C57.6667 77.5627 58.3661 75.67 59.7651 72.5703C59.2714 71.8845 58.8599 71.1714 58.5307 70.4307C54.4436 70.0193 52.4 69.5941 52.4 69.1552V63.3948C52.4 62.9559 54.4436 62.5307 58.5307 62.1193C58.8873 61.3238 59.2988 60.6106 59.7651 59.9797C58.3661 56.88 57.6667 54.9873 57.6667 54.3016C57.6667 54.1918 57.7215 54.0958 57.8313 54.0135C57.941 53.9587 58.421 53.6844 59.2714 53.1906C60.1217 52.6969 60.9309 52.2306 61.699 51.7917C62.467 51.3528 62.8785 51.1333 62.9333 51.1333C63.1528 51.1333 63.7837 51.7711 64.826 53.0466C65.8684 54.3221 66.5816 55.2479 66.9656 55.824C67.5142 55.7691 67.9257 55.7417 68.2 55.7417C68.4743 55.7417 68.8858 55.7691 69.4344 55.824C70.8333 53.8764 72.0951 52.3403 73.2198 51.2156L73.4667 51.1333C73.5764 51.1333 75.2771 52.0934 78.5688 54.0135C78.6785 54.0958 78.7333 54.1918 78.7333 54.3016C78.7333 54.9873 78.0339 56.88 76.6349 59.9797C77.1012 60.6106 77.5127 61.3238 77.8693 62.1193C81.9564 62.5307 84 62.9559 84 63.3948ZM84 21.2615V27.0219C84 27.4608 81.9564 27.8859 77.8693 28.2974C77.5401 29.038 77.1286 29.7512 76.6349 30.437C78.0339 33.5366 78.7333 35.4293 78.7333 36.1151C78.7333 36.2248 78.6785 36.3208 78.5688 36.4031C75.2222 38.3507 73.5215 39.3245 73.4667 39.3245C73.2472 39.3245 72.6163 38.6799 71.574 37.3906C70.5316 36.1014 69.8184 35.1687 69.4344 34.5927C68.8858 34.6476 68.4743 34.675 68.2 34.675C67.9257 34.675 67.5142 34.6476 66.9656 34.5927C66.5816 35.1687 65.8684 36.1014 64.826 37.3906C63.7837 38.6799 63.1528 39.3245 62.9333 39.3245C62.8785 39.3245 61.1778 38.3507 57.8313 36.4031C57.7215 36.3208 57.6667 36.2248 57.6667 36.1151C57.6667 35.4293 58.3661 33.5366 59.7651 30.437C59.2714 29.7512 58.8599 29.038 58.5307 28.2974C54.4436 27.8859 52.4 27.4608 52.4 27.0219V21.2615C52.4 20.8226 54.4436 20.3974 58.5307 19.9859C58.8873 19.1905 59.2988 18.4773 59.7651 17.8464C58.3661 14.7467 57.6667 12.854 57.6667 12.1682C57.6667 12.0585 57.7215 11.9625 57.8313 11.8802C57.941 11.8253 58.421 11.551 59.2714 11.0573C60.1217 10.5635 60.9309 10.0972 61.699 9.65833C62.467 9.21944 62.8785 9 62.9333 9C63.1528 9 63.7837 9.63776 64.826 10.9133C65.8684 12.1888 66.5816 13.1146 66.9656 13.6906C67.5142 13.6358 67.9257 13.6083 68.2 13.6083C68.4743 13.6083 68.8858 13.6358 69.4344 13.6906C70.8333 11.7431 72.0951 10.2069 73.2198 9.08229L73.4667 9C73.5764 9 75.2771 9.96007 78.5688 11.8802C78.6785 11.9625 78.7333 12.0585 78.7333 12.1682C78.7333 12.854 78.0339 14.7467 76.6349 17.8464C77.1012 18.4773 77.5127 19.1905 77.8693 19.9859C81.9564 20.3974 84 20.8226 84 21.2615Z"/>
</mask>
<path d="M41.8667 45.2083C41.8667 42.3007 40.838 39.8182 38.7807 37.7609C36.7234 35.7036 34.241 34.675 31.3333 34.675C28.4257 34.675 25.9432 35.7036 23.8859 37.7609C21.8286 39.8182 20.8 42.3007 20.8 45.2083C20.8 48.116 21.8286 50.5984 23.8859 52.6557C25.9432 54.713 28.4257 55.7417 31.3333 55.7417C34.241 55.7417 36.7234 54.713 38.7807 52.6557C40.838 50.5984 41.8667 48.116 41.8667 45.2083ZM73.4667 66.275C73.4667 64.8486 72.9455 63.6142 71.9031 62.5719C70.8608 61.5295 69.6264 61.0083 68.2 61.0083C66.7736 61.0083 65.5392 61.5295 64.4969 62.5719C63.4545 63.6142 62.9333 64.8486 62.9333 66.275C62.9333 67.7288 63.4477 68.97 64.4763 69.9987C65.505 71.0273 66.7462 71.5417 68.2 71.5417C69.6538 71.5417 70.8951 71.0273 71.9237 69.9987C72.9523 68.97 73.4667 67.7288 73.4667 66.275ZM73.4667 24.1417C73.4667 22.7153 72.9455 21.4809 71.9031 20.4385C70.8608 19.3962 69.6264 18.875 68.2 18.875C66.7736 18.875 65.5392 19.3962 64.4969 20.4385C63.4545 21.4809 62.9333 22.7153 62.9333 24.1417C62.9333 25.5955 63.4477 26.8367 64.4763 27.8654C65.505 28.894 66.7462 29.4083 68.2 29.4083C69.6538 29.4083 70.8951 28.894 71.9237 27.8654C72.9523 26.8367 73.4667 25.5955 73.4667 24.1417ZM57.6667 41.4641V49.076C57.6667 49.3503 57.5707 49.6178 57.3786 49.8784C57.1866 50.139 56.9672 50.283 56.7203 50.3104L50.3427 51.2979C50.041 52.258 49.6021 53.3003 49.026 54.425C49.9587 55.7417 51.1931 57.3189 52.7292 59.1568C52.9212 59.4585 53.0172 59.7328 53.0172 59.9797C53.0172 60.3089 52.9212 60.5694 52.7292 60.7615C52.0983 61.5844 50.9668 62.8119 49.3346 64.444C47.7025 66.0761 46.6259 66.8922 46.1047 66.8922C45.803 66.8922 45.5149 66.7962 45.2406 66.6042L40.5089 62.901C39.4939 63.4222 38.4378 63.8474 37.3406 64.1766C37.0389 67.1391 36.7234 69.2649 36.3943 70.5542C36.2023 71.2125 35.7908 71.5417 35.1599 71.5417H27.5068C27.205 71.5417 26.9307 71.4388 26.6839 71.2331C26.437 71.0273 26.2998 70.7873 26.2724 70.513L25.326 64.2177C24.3934 63.9434 23.3648 63.5182 22.2401 62.9422L17.3849 66.6042C17.1929 66.7962 16.9186 66.8922 16.562 66.8922C16.2602 66.8922 15.9722 66.7825 15.6979 66.563C11.7479 62.9148 9.77292 60.7203 9.77292 59.9797C9.77292 59.7328 9.86892 59.4722 10.0609 59.1979C10.3352 58.8139 10.8976 58.087 11.7479 57.0172C12.5983 55.9474 13.2429 55.1108 13.6818 54.5073C13.0509 53.3003 12.5708 52.1757 12.2417 51.1333L5.9875 50.1458C5.71319 50.1184 5.48003 49.9881 5.28802 49.7549C5.09601 49.5218 5 49.2543 5 48.9526V41.3406C5 41.0663 5.09601 40.7989 5.28802 40.5383C5.48003 40.2777 5.69948 40.1337 5.94635 40.1062L12.324 39.1187C12.6257 38.1587 13.0646 37.1163 13.6406 35.9917C12.708 34.675 11.4736 33.0977 9.9375 31.2599C9.74549 30.9582 9.64948 30.6839 9.64948 30.437C9.64948 30.1078 9.74549 29.8335 9.9375 29.6141C10.541 28.7911 11.6656 27.5705 13.3115 25.9521C14.9573 24.3337 16.0408 23.5245 16.562 23.5245C16.8637 23.5245 17.1517 23.6205 17.426 23.8125L22.1578 27.5156C23.0905 27.0219 24.1465 26.583 25.326 26.199C25.6278 23.2365 25.9432 21.1243 26.2724 19.8625C26.4644 19.2042 26.8759 18.875 27.5068 18.875H35.1599C35.4616 18.875 35.7359 18.9779 35.9828 19.1836C36.2297 19.3893 36.3668 19.6293 36.3943 19.9036L37.3406 26.199C38.2733 26.4733 39.3019 26.8984 40.4266 27.4745L45.2818 23.8125C45.5012 23.6205 45.7755 23.5245 46.1047 23.5245C46.4064 23.5245 46.6944 23.6342 46.9688 23.8536C50.9188 27.5019 52.8938 29.6964 52.8938 30.437C52.8938 30.6564 52.7977 30.917 52.6057 31.2187C52.2766 31.6576 51.7005 32.3983 50.8776 33.4406C50.0547 34.483 49.4375 35.3059 49.026 35.9094C49.6569 37.226 50.1233 38.3507 50.425 39.2833L56.6792 40.2297C56.9535 40.2845 57.1866 40.4286 57.3786 40.6617C57.5707 40.8949 57.6667 41.1623 57.6667 41.4641ZM84 63.3948V69.1552C84 69.5941 81.9564 70.0193 77.8693 70.4307C77.5401 71.1714 77.1286 71.8845 76.6349 72.5703C78.0339 75.67 78.7333 77.5627 78.7333 78.2484C78.7333 78.3582 78.6785 78.4542 78.5688 78.5365C75.2222 80.484 73.5215 81.4578 73.4667 81.4578C73.2472 81.4578 72.6163 80.8132 71.574 79.524C70.5316 78.2347 69.8184 77.3021 69.4344 76.726C68.8858 76.7809 68.4743 76.8083 68.2 76.8083C67.9257 76.8083 67.5142 76.7809 66.9656 76.726C66.5816 77.3021 65.8684 78.2347 64.826 79.524C63.7837 80.8132 63.1528 81.4578 62.9333 81.4578C62.8785 81.4578 61.1778 80.484 57.8313 78.5365C57.7215 78.4542 57.6667 78.3582 57.6667 78.2484C57.6667 77.5627 58.3661 75.67 59.7651 72.5703C59.2714 71.8845 58.8599 71.1714 58.5307 70.4307C54.4436 70.0193 52.4 69.5941 52.4 69.1552V63.3948C52.4 62.9559 54.4436 62.5307 58.5307 62.1193C58.8873 61.3238 59.2988 60.6106 59.7651 59.9797C58.3661 56.88 57.6667 54.9873 57.6667 54.3016C57.6667 54.1918 57.7215 54.0958 57.8313 54.0135C57.941 53.9587 58.421 53.6844 59.2714 53.1906C60.1217 52.6969 60.9309 52.2306 61.699 51.7917C62.467 51.3528 62.8785 51.1333 62.9333 51.1333C63.1528 51.1333 63.7837 51.7711 64.826 53.0466C65.8684 54.3221 66.5816 55.2479 66.9656 55.824C67.5142 55.7691 67.9257 55.7417 68.2 55.7417C68.4743 55.7417 68.8858 55.7691 69.4344 55.824C70.8333 53.8764 72.0951 52.3403 73.2198 51.2156L73.4667 51.1333C73.5764 51.1333 75.2771 52.0934 78.5688 54.0135C78.6785 54.0958 78.7333 54.1918 78.7333 54.3016C78.7333 54.9873 78.0339 56.88 76.6349 59.9797C77.1012 60.6106 77.5127 61.3238 77.8693 62.1193C81.9564 62.5307 84 62.9559 84 63.3948ZM84 21.2615V27.0219C84 27.4608 81.9564 27.8859 77.8693 28.2974C77.5401 29.038 77.1286 29.7512 76.6349 30.437C78.0339 33.5366 78.7333 35.4293 78.7333 36.1151C78.7333 36.2248 78.6785 36.3208 78.5688 36.4031C75.2222 38.3507 73.5215 39.3245 73.4667 39.3245C73.2472 39.3245 72.6163 38.6799 71.574 37.3906C70.5316 36.1014 69.8184 35.1687 69.4344 34.5927C68.8858 34.6476 68.4743 34.675 68.2 34.675C67.9257 34.675 67.5142 34.6476 66.9656 34.5927C66.5816 35.1687 65.8684 36.1014 64.826 37.3906C63.7837 38.6799 63.1528 39.3245 62.9333 39.3245C62.8785 39.3245 61.1778 38.3507 57.8313 36.4031C57.7215 36.3208 57.6667 36.2248 57.6667 36.1151C57.6667 35.4293 58.3661 33.5366 59.7651 30.437C59.2714 29.7512 58.8599 29.038 58.5307 28.2974C54.4436 27.8859 52.4 27.4608 52.4 27.0219V21.2615C52.4 20.8226 54.4436 20.3974 58.5307 19.9859C58.8873 19.1905 59.2988 18.4773 59.7651 17.8464C58.3661 14.7467 57.6667 12.854 57.6667 12.1682C57.6667 12.0585 57.7215 11.9625 57.8313 11.8802C57.941 11.8253 58.421 11.551 59.2714 11.0573C60.1217 10.5635 60.9309 10.0972 61.699 9.65833C62.467 9.21944 62.8785 9 62.9333 9C63.1528 9 63.7837 9.63776 64.826 10.9133C65.8684 12.1888 66.5816 13.1146 66.9656 13.6906C67.5142 13.6358 67.9257 13.6083 68.2 13.6083C68.4743 13.6083 68.8858 13.6358 69.4344 13.6906C70.8333 11.7431 72.0951 10.2069 73.2198 9.08229L73.4667 9C73.5764 9 75.2771 9.96007 78.5688 11.8802C78.6785 11.9625 78.7333 12.0585 78.7333 12.1682C78.7333 12.854 78.0339 14.7467 76.6349 17.8464C77.1012 18.4773 77.5127 19.1905 77.8693 19.9859C81.9564 20.3974 84 20.8226 84 21.2615Z" stroke="url(#paint0_linear_302_279)" stroke-width="8" mask="url(#path-1-outside-1_302_279)"/>
<defs>
<linearGradient id="paint0_linear_302_279" x1="44.5" y1="9" x2="44.5" y2="81.4578" gradientUnits="userSpaceOnUse">
<stop stop-color="#80B1F2"/>
<stop offset="1" stop-color="#3B88EC"/>
</linearGradient>
</defs>
</svg>
