<svg width="90" height="90" viewBox="0 0 90 90" fill="none" xmlns="http://www.w3.org/2000/svg">
<path d="M36.9327 43.9027H31.3462V38.3161H36.9327V43.9027ZM59.2788 43.9027H53.6923V38.3161H59.2788V43.9027ZM81.625 38.3161V49.4892H76.0385V63.4556C76.0385 64.6194 75.8202 65.7105 75.3838 66.7289C74.9473 67.7473 74.3509 68.6347 73.5943 69.3913C72.8378 70.1478 71.9504 70.7442 70.932 71.1807C69.9136 71.6171 68.8225 71.8354 67.6587 71.8354H56.1364L36.9327 88.2458V71.8354H22.9663C21.8025 71.8354 20.7114 71.6171 19.693 71.1807C18.6746 70.7442 17.7872 70.1478 17.0306 69.3913C16.2741 68.6347 15.6777 67.7473 15.2412 66.7289C14.8048 65.7105 14.5865 64.6194 14.5865 63.4556V49.4892H9V38.3161H14.5865V29.9363C14.5865 28.7725 14.8048 27.6813 15.2412 26.663C15.6777 25.6446 16.2741 24.7571 17.0306 24.0006C17.7872 23.2441 18.6746 22.6476 19.693 22.2112C20.7114 21.7747 21.8025 21.5565 22.9663 21.5565H42.5192V12.4348C41.6754 11.9401 41.0062 11.2563 40.5116 10.3834C40.0169 9.51055 39.7551 8.57946 39.726 7.59018C39.726 6.80457 39.8714 6.07715 40.1624 5.40793C40.4534 4.73871 40.8462 4.15678 41.3408 3.66214C41.8355 3.1675 42.4319 2.76015 43.1303 2.44009C43.8286 2.12002 44.556 1.97454 45.3125 2.00364C46.0981 2.00364 46.8255 2.14912 47.4947 2.44009C48.164 2.73105 48.7459 3.12385 49.2405 3.6185C49.7352 4.11314 50.1425 4.70962 50.4626 5.40793C50.7827 6.10625 50.9281 6.83366 50.899 7.59018C50.899 8.57946 50.6517 9.51055 50.1571 10.3834C49.6624 11.2563 48.9787 11.9401 48.1058 12.4348V21.5565H67.6587C68.8225 21.5565 69.9136 21.7747 70.932 22.2112C71.9504 22.6476 72.8378 23.2441 73.5943 24.0006C74.3509 24.7571 74.9473 25.6446 75.3838 26.663C75.8202 27.6813 76.0385 28.7725 76.0385 29.9363V38.3161H81.625ZM70.4519 29.9363C70.4519 29.1798 70.1755 28.5251 69.6227 27.9723C69.0698 27.4195 68.4152 27.1431 67.6587 27.1431H22.9663C22.2098 27.1431 21.5552 27.4195 21.0023 27.9723C20.4495 28.5251 20.1731 29.1798 20.1731 29.9363V63.4556C20.1731 64.2121 20.4495 64.8667 21.0023 65.4196C21.5552 65.9724 22.2098 66.2488 22.9663 66.2488H42.5192V76.1126L54.0415 66.2488H67.6587C68.4152 66.2488 69.0698 65.9724 69.6227 65.4196C70.1755 64.8667 70.4519 64.2121 70.4519 63.4556V29.9363ZM33.3102 50.1002C34.9105 51.7006 36.7436 52.9226 38.8094 53.7664C40.8753 54.6102 43.043 55.0467 45.3125 55.0758C47.582 55.0758 49.7497 54.6539 51.8156 53.8101C53.8814 52.9663 55.7145 51.7296 57.3148 50.1002L61.2429 54.0719C59.1188 56.196 56.6893 57.8254 53.9542 58.9601C51.2191 60.0949 48.3385 60.6623 45.3125 60.6623C42.3156 60.6623 39.4495 60.0949 36.7145 58.9601C33.9794 57.8254 31.5353 56.196 29.3821 54.0719L33.3102 50.1002Z" fill="url(#paint0_linear_302_278)"/>
<defs>
<linearGradient id="paint0_linear_302_278" x1="39.125" y1="92.4924" x2="38.1682" y2="4.50284" gradientUnits="userSpaceOnUse">
<stop stop-color="#2AB086"/>
<stop offset="1" stop-color="#7DCEB4"/>
</linearGradient>
</defs>
</svg>
