<svg width="123" height="68" viewBox="0 0 123 68" fill="none" xmlns="http://www.w3.org/2000/svg">
<path fill-rule="evenodd" clip-rule="evenodd" d="M55.0112 30.2942C55.0112 32.8545 56.2943 34.5981 54.1232 39.1178L54.0377 39.2919C54.0193 39.3273 53.9631 39.4292 53.9433 39.464L53.2524 40.4719C52.172 41.9113 49.9328 43.5281 47.486 43.5281H45.9291C40.2689 43.5281 36.4279 36.4062 38.7766 29.8884C40.8926 24.0163 47.4261 22.9634 51.2508 25.4916C52.2727 26.1671 52.2712 26.4334 52.8055 26.7912L53.3394 24.9896C54.2583 22.2179 55.6693 21.4542 56.1789 20.6932C53.1913 18.6928 48.9436 18.0717 45.4123 18.1006C42.5431 18.1239 37.695 19.7881 35.3849 22.1018C28.55 28.9469 28.4471 39.81 35.9784 46.2131C37.0482 47.1226 38.2898 47.8596 39.6076 48.4224C42.7273 49.7549 43.9717 49.8855 47.486 49.8855C50.8234 49.8855 54.2199 48.4755 56.2584 47.1108C59.8541 44.7035 62.2808 40.8364 62.904 36.5169C63.3894 33.1527 62.1666 26.6692 66.6317 25.697C67.3622 25.5379 68.6109 25.3132 69.4127 25.6228V50.0153H77.1324L77.1973 17.8389C76.6697 17.8828 76.0016 18.0369 75.4347 18.1523C74.7721 18.2873 74.2103 18.3725 73.5757 18.4989C72.3399 18.745 71.2911 19.0125 69.8023 19.007C66.0326 18.9929 63.2768 18.8279 60.4159 20.3893L59.8533 20.7349C57.4673 22.2347 56.1116 24.6405 55.423 27.3501L55.0112 30.2942Z" fill="#323232"/>
<path fill-rule="evenodd" clip-rule="evenodd" d="M3.63284 18.4877V25.883H15.699C18.6833 25.883 19.5913 27.1725 19.5913 29.9051C15.9491 29.9051 11.0554 30.4078 7.60576 31.5628C7.33547 31.6533 7.7625 31.5173 7.41175 31.6245C4.95443 32.3755 2.68889 33.7349 1.26254 35.8182C0.478789 36.9629 0.069861 38.4657 0 39.9913V40.9438C0.065391 42.3694 0.422482 43.754 1.04207 44.8214C2.93827 48.0883 6.90146 50.0153 11.0282 50.0153C13.3566 50.0153 14.7724 50.0906 17.023 49.5229C18.8258 49.0681 19.8785 48.4431 20.3697 48.3286C20.3323 48.1883 18.6102 45.2409 18.0523 43.7696C17.9379 43.4679 17.9012 43.2725 17.7748 43.0091C15.679 44.1181 14.6782 44.0471 12.3257 44.0471C6.50731 44.0471 4.10795 35.7435 18.683 35.7435H19.721C19.721 36.4318 19.5913 36.4913 19.5913 37.041C19.5913 41.9546 20.8752 46.5729 24.9092 48.5896C27.4792 49.8743 28.8708 49.7558 31.6573 49.7558C31.6573 41.8376 32.0462 43.9798 30.1414 43.3575C28.5902 42.8506 27.7437 41.0869 27.4448 39.437C27.2851 38.5553 27.2833 36.1938 27.4113 35.26C27.7699 32.6436 27.5027 28.0271 26.647 25.4441C26.0388 23.6084 24.9451 21.7943 23.3558 20.6922C23.1952 20.5809 23.076 20.5218 22.8892 20.3996C21.9107 19.7591 21.3111 19.5179 20.1282 19.1183C18.6814 18.6298 16.3723 18.3579 14.4015 18.3579H5.83847C4.89885 18.3579 4.53902 18.4877 3.63284 18.4877Z" fill="#323232"/>
<path fill-rule="evenodd" clip-rule="evenodd" d="M82.3871 1.36157C82.3871 11.0539 82.3871 20.7464 82.3871 30.4388C82.3871 38.6181 80.5217 50.0153 91.8583 50.0153L95.3614 49.8855V43.5281C94.6248 43.8815 92.7714 43.6239 92.1293 43.3868C89.4429 42.3945 90.1716 37.2504 90.1716 34.4461L90.1717 1.75067C90.1755 -0.653223 90.9773 -0.175155 85.5759 0.787759C84.5223 0.975641 83.3626 1.28032 82.3871 1.36157Z" fill="#323232"/>
<path fill-rule="evenodd" clip-rule="evenodd" d="M30.3599 51.5722C30.3599 53.9167 31.022 56.2847 31.83 57.8866C32.9918 60.1896 33.3318 60.704 35.1279 62.5031C39.5863 66.9687 47.6493 68.3128 53.4541 65.7142C57.0959 64.0839 59.7033 61.7966 61.4989 58.1911C62.6132 55.9536 63.0552 53.8307 63.0552 51.0533H55.4003C55.4003 55.7869 52.2686 60.6542 47.0967 60.6542C45.4612 60.6542 44.097 60.5362 42.7874 59.7738C40.7834 58.6071 39.5452 57.1556 38.7428 54.866C38.3467 53.7355 38.1286 52.4213 38.0147 51.0533H30.3599V51.5722Z" fill="#323232"/>
<path fill-rule="evenodd" clip-rule="evenodd" d="M105.481 26.6615C105.481 33.4868 105.08 32.0999 107.031 32.2477C110.192 32.4872 113.785 32.6728 115.01 35.9492C115.052 36.0607 115.113 36.2155 115.15 36.3441C115.16 36.3786 115.168 36.4121 115.177 36.4471C115.186 36.4824 115.193 36.5163 115.201 36.5519C115.842 39.4042 114.925 41.9627 112.117 42.898C111.543 43.0894 110.961 43.2686 110.152 43.2686H97.8264V50.0153H109.763C115.245 50.0153 120.737 47.4612 122.366 42.3909C123.037 40.3036 122.987 38.999 123 36.2786C123.014 33.3363 121.367 31.1545 119.438 29.7008C117.998 28.6152 116.523 28.1177 114.84 27.5522C112.479 26.7589 108.598 26.2722 105.871 26.2722C105.572 26.2722 105.481 26.3626 105.481 26.6615Z" fill="#FE6700"/>
<path fill-rule="evenodd" clip-rule="evenodd" d="M99.3833 16.0225H109.374C110.992 16.0225 112.497 16.2929 113.523 16.9326C115.821 18.3648 115.785 22.3529 114.454 23.9574C114.156 24.3161 114.041 24.2407 113.915 24.7153C115.39 24.8381 119.273 26.3849 120.531 27.0507C121.188 26.6113 121.952 25.4256 122.295 24.5522C123.302 21.9959 123.213 18.4233 122.047 15.9335C120.35 12.3109 116.4 9.40561 111.839 9.40561H99.3833V16.0225Z" fill="#FE6700"/>
<path fill-rule="evenodd" clip-rule="evenodd" d="M72.786 14.5954C73.9986 14.5954 74.6409 14.6573 75.7651 14.0714C76.1345 13.8789 76.9525 13.2635 77.2197 12.931C81.6392 7.43205 74.4044 1.20051 69.7013 5.54234C66.165 8.80692 68.82 14.5954 72.786 14.5954Z" fill="#FE6700"/>
</svg>
