<svg width="123" height="68" viewBox="0 0 123 68" fill="none" xmlns="http://www.w3.org/2000/svg">
<g clip-path="url(#clip0_138_50)">
<path fill-rule="evenodd" clip-rule="evenodd" d="M55.0113 30.2942C55.0113 32.8545 56.2945 34.5981 54.1233 39.1178L54.0378 39.2918C54.0194 39.3272 53.9632 39.4292 53.9434 39.464L53.2525 40.4718C52.1721 41.9113 49.9329 43.5281 47.4861 43.5281H45.9292C40.269 43.5281 36.428 36.4061 38.7767 29.8884C40.8928 24.0163 47.4262 22.9634 51.2509 25.4915C52.2728 26.1671 52.2713 26.4333 52.8056 26.7912L53.3395 24.9896C54.2584 22.2179 55.6694 21.4542 56.179 20.6932C53.1915 18.6927 48.9437 18.0716 45.4124 18.1005C42.5432 18.1239 37.6952 19.7881 35.385 22.1018C28.5501 28.9469 28.4472 39.81 35.9786 46.2131C37.0483 47.1225 38.29 47.8596 39.6077 48.4224C42.7275 49.7548 43.9718 49.8855 47.4861 49.8855C50.8235 49.8855 54.2201 48.4754 56.2586 47.1107C59.8542 44.7035 62.2809 40.8364 62.9041 36.5169C63.3896 33.1527 62.1667 26.6692 66.6319 25.6969C67.3623 25.5379 68.611 25.3132 69.4128 25.6228V50.0153H77.1325L77.1974 17.8388C76.6699 17.8827 76.0017 18.0369 75.4349 18.1523C74.7722 18.2873 74.2104 18.3725 73.5758 18.4989C72.3401 18.745 71.2912 19.0125 69.8024 19.007C66.0328 18.9929 63.277 18.8278 60.416 20.3893L59.8534 20.7349C57.4675 22.2347 56.1117 24.6405 55.4231 27.35L55.0113 30.2942Z" fill="white"/>
<path fill-rule="evenodd" clip-rule="evenodd" d="M3.6329 18.4876V25.8829H15.699C18.6834 25.8829 19.5913 27.1724 19.5913 29.905C15.9492 29.905 11.0555 30.4077 7.60582 31.5627C7.33554 31.6533 7.76256 31.5173 7.41181 31.6244C4.95449 32.3755 2.68895 33.7348 1.26261 35.8182C0.47885 36.9629 0.069922 38.4657 6.10352e-05 39.9913V40.9438C0.0654521 42.3694 0.422543 43.7539 1.04214 44.8214C2.93833 48.0883 6.90152 50.0152 11.0283 50.0152C13.3567 50.0152 14.7724 50.0906 17.0231 49.5228C18.8259 49.0681 19.8786 48.4431 20.3698 48.3286C20.3323 48.1883 18.6103 45.2408 18.0524 43.7696C17.938 43.4679 17.9013 43.2725 17.7749 43.0091C15.6791 44.1181 14.6782 44.0471 12.3257 44.0471C6.50737 44.0471 4.10802 35.7435 18.6831 35.7435H19.721C19.721 36.4317 19.5913 36.4913 19.5913 37.0409C19.5913 41.9546 20.8752 46.5729 24.9093 48.5896C27.4793 49.8742 28.8709 49.7558 31.6574 49.7558C31.6574 41.8376 32.0463 43.9798 30.1414 43.3575C28.5902 42.8506 27.7438 41.0869 27.4449 39.437C27.2851 38.5552 27.2834 36.1938 27.4114 35.26C27.77 32.6436 27.5027 28.0271 26.647 25.4441C26.0389 23.6084 24.9451 21.7942 23.3558 20.6922C23.1953 20.5809 23.076 20.5218 22.8892 20.3995C21.9107 19.7591 21.3112 19.5179 20.1282 19.1183C18.6815 18.6297 16.3724 18.3578 14.4016 18.3578H5.83854C4.89891 18.3578 4.53908 18.4876 3.6329 18.4876Z" fill="white"/>
<path fill-rule="evenodd" clip-rule="evenodd" d="M82.3871 1.36154C82.3871 11.0539 82.3871 20.7463 82.3871 30.4388C82.3871 38.6181 80.5218 50.0153 91.8584 50.0153L95.3614 49.8855V43.5281C94.6249 43.8814 92.7715 43.6239 92.1294 43.3868C89.443 42.3944 90.1717 37.2503 90.1717 34.4461L90.1718 1.75064C90.1756 -0.653253 90.9774 -0.175185 85.5759 0.787728C84.5223 0.97561 83.3627 1.28029 82.3871 1.36154Z" fill="white"/>
<path fill-rule="evenodd" clip-rule="evenodd" d="M105.481 26.6614C105.481 33.4868 105.08 32.0999 107.031 32.2476C110.192 32.4871 113.785 32.6728 115.01 35.9492C115.052 36.0607 115.113 36.2154 115.15 36.3441C115.16 36.3785 115.168 36.4121 115.177 36.4471C115.186 36.4823 115.193 36.5162 115.201 36.5518C115.842 39.4042 114.925 41.9626 112.117 42.898C111.543 43.0894 110.962 43.2686 110.152 43.2686H97.8265V50.0153H109.763C115.245 50.0153 120.737 47.4612 122.366 42.3909C123.037 40.3036 122.987 38.999 123 36.2786C123.014 33.3363 121.367 31.1545 119.439 29.7008C117.998 28.6152 116.523 28.1176 114.84 27.5522C112.479 26.7588 108.598 26.2722 105.871 26.2722C105.572 26.2722 105.481 26.3625 105.481 26.6614Z" fill="white"/>
<path fill-rule="evenodd" clip-rule="evenodd" d="M30.36 51.5722C30.36 53.9167 31.0222 56.2847 31.8302 57.8866C32.992 60.1896 33.332 60.704 35.128 62.5031C39.5865 66.9687 47.6495 68.3128 53.4543 65.7142C57.096 64.0838 59.7035 61.7965 61.4991 58.1911C62.6134 55.9536 63.0553 53.8307 63.0553 51.0532H55.4005C55.4005 55.7869 52.2688 60.6542 47.0969 60.6542C45.4614 60.6542 44.0972 60.5361 42.7876 59.7738C40.7836 58.6071 39.5454 57.1556 38.743 54.866C38.3468 53.7355 38.1287 52.4212 38.0149 51.0532H30.36V51.5722Z" fill="white"/>
<path fill-rule="evenodd" clip-rule="evenodd" d="M99.3835 16.0225H109.374C110.992 16.0225 112.497 16.2928 113.524 16.9325C115.822 18.3648 115.785 22.3529 114.454 23.9574C114.157 24.3161 114.042 24.2407 113.915 24.7153C115.39 24.8381 119.273 26.3849 120.532 27.0507C121.188 26.6113 121.952 25.4256 122.296 24.5522C123.302 21.9959 123.213 18.4233 122.047 15.9334C120.35 12.3109 116.4 9.40558 111.839 9.40558H99.3835V16.0225Z" fill="white"/>
<path fill-rule="evenodd" clip-rule="evenodd" d="M72.7861 14.5953C73.9987 14.5953 74.6409 14.6573 75.7652 14.0713C76.1345 13.8788 76.9525 13.2634 77.2197 12.931C81.6393 7.43202 74.4045 1.20048 69.7013 5.54231C66.165 8.80689 68.8201 14.5953 72.7861 14.5953Z" fill="white"/>
</g>
<defs>
<clipPath id="clip0_138_50">
<rect width="123" height="67.0298" fill="white"/>
</clipPath>
</defs>
</svg>
