<svg width="79" height="79" viewBox="0 0 79 79" fill="none" xmlns="http://www.w3.org/2000/svg">
<rect width="79" height="79" rx="8.90141" fill="#EDEDED"/>
<path fill-rule="evenodd" clip-rule="evenodd" d="M8.4281 50.523H10.4891V42.3582L13.7078 49.4768C14.0724 50.3325 14.5962 50.6495 15.6103 50.6495C16.6245 50.6495 17.117 50.3322 17.4937 49.4768L20.6964 42.3582V50.523H22.7734V42.3582C22.7734 41.5658 22.456 41.1845 21.7901 40.9784C20.2206 40.503 19.1741 40.9152 18.6986 41.9769L15.5439 49.0163L12.4996 41.9769C12.0398 40.9152 10.9773 40.503 9.39215 40.9784C8.74187 41.1845 8.4249 41.5654 8.4249 42.3582L8.42455 50.523H8.4281ZM24.489 43.8802H26.566V48.3671C26.5503 48.6205 26.6452 49.1915 27.7741 49.2068C28.3604 49.2228 32.2451 49.2068 32.2763 49.2068V43.8482H34.3533V51.1889C34.3533 52.9962 32.1147 53.392 31.0714 53.4084H24.5401V52.0296H31.0881C32.4199 51.8868 32.2614 51.2212 32.2614 50.9991V50.4597H27.8694C25.824 50.4437 24.5078 49.5401 24.4925 48.5096V43.8794L24.489 43.8802ZM69.04 38.6797C67.7721 38.6477 66.7885 38.7749 65.9641 39.1239C65.7267 39.2198 65.3458 39.2198 65.3145 39.5204C65.4414 39.6466 65.4567 39.853 65.5679 40.0279C65.758 40.3452 66.0913 40.7727 66.3923 40.9944C66.7256 41.2485 67.0585 41.5018 67.4068 41.7239C68.0251 42.1041 68.7226 42.3262 69.3249 42.7068C69.6739 42.9289 70.0225 43.2142 70.3714 43.4523C70.5491 43.5792 70.6568 43.7856 70.8789 43.8645V43.8165C70.768 43.6744 70.736 43.4683 70.6255 43.3091C70.4667 43.151 70.3082 43.0078 70.1493 42.8497C69.6899 42.2314 69.1188 41.6919 68.5005 41.2485C67.9931 40.8995 66.8837 40.4241 66.6776 39.8378L66.6463 39.8058C66.9946 39.7738 67.4068 39.6469 67.7401 39.5517C68.2795 39.4096 68.7706 39.4408 69.3249 39.2983C69.579 39.2344 69.8324 39.1555 70.0864 39.0763V38.9341C69.8011 38.6488 69.595 38.2682 69.294 37.9988C68.4856 37.3013 67.5972 36.6194 66.6776 36.0487C66.1862 35.7317 65.5519 35.5253 65.0288 35.2563C64.838 35.1611 64.5214 35.1134 64.4105 34.955C64.1245 34.6067 63.9663 34.1466 63.7602 33.734C63.3008 32.862 62.8566 31.8951 62.4604 30.9755C62.175 30.3572 62.0002 29.7389 61.652 29.1682C60.0188 26.4729 58.2428 24.8401 55.5159 23.2385C54.9296 22.9056 54.232 22.7624 53.4904 22.5883L52.3014 22.5243C52.0474 22.4134 51.794 22.1121 51.5719 21.9692C50.6683 21.3986 48.3376 20.162 47.6713 21.7951C47.2431 22.8256 48.3056 23.8401 48.6663 24.3636C48.9363 24.7281 49.2846 25.1403 49.4754 25.5525C49.582 25.8219 49.6175 26.1076 49.7287 26.3929C49.9821 27.0905 50.2202 27.8676 50.5531 28.5179C50.7308 28.8509 50.9174 29.2002 51.1395 29.5011C51.2663 29.6753 51.4884 29.7548 51.5357 30.0402C51.3136 30.3575 51.2983 30.8326 51.1714 31.2295C50.6004 33.0212 50.8225 35.2407 51.6309 36.5561C51.885 36.9524 52.4837 37.8247 53.2961 37.4914C54.0096 37.2061 53.8504 36.3024 54.0565 35.5097C54.1045 35.3195 54.0725 35.1927 54.1674 35.0655V35.0975L54.8176 36.4133C55.3091 37.1901 56.1655 37.9988 56.8786 38.5383C57.2589 38.8236 57.5602 39.3154 58.0356 39.4895V39.4415H58.0044C57.9091 39.2994 57.7663 39.2354 57.6394 39.1246C57.3541 38.8392 57.0371 38.4903 56.815 38.1733C56.1495 37.2857 55.5631 36.3024 55.0397 35.2879C54.7857 34.7965 54.5636 34.2574 54.3582 33.766C54.2622 33.5755 54.2622 33.2898 54.1041 33.1953C53.866 33.5435 53.5178 33.8456 53.3426 34.2734C53.0413 34.955 53.01 35.7954 52.8991 36.6674C52.8352 36.6834 52.8636 36.6674 52.8352 36.6994C52.3284 36.5728 52.1536 36.0491 51.9635 35.6056C51.4881 34.4799 51.4085 32.6726 51.8207 31.3724C51.9315 31.0394 52.4077 29.9929 52.2176 29.676C52.1216 29.3746 51.8054 29.2005 51.6305 28.9624C51.4244 28.6611 51.2031 28.2809 51.0602 27.9479C50.68 27.0596 50.4899 26.077 50.0773 25.189C49.8865 24.7768 49.5539 24.3486 49.2842 23.9684C48.9829 23.5402 48.6506 23.2389 48.4125 22.7318C48.3333 22.5577 48.2224 22.272 48.3493 22.0815C48.3806 21.9547 48.4445 21.9074 48.5707 21.8754C48.7768 21.7013 49.3638 21.923 49.5699 22.0176C50.1562 22.2557 50.6477 22.4774 51.1391 22.81C51.3612 22.9685 51.5993 23.2698 51.8846 23.3494H52.2179C52.7254 23.4603 53.2957 23.3814 53.7708 23.5235C54.6112 23.7936 55.372 24.1894 56.0542 24.618C58.1309 25.9338 59.8436 27.8047 61.0006 30.0405C61.1907 30.4051 61.27 30.7381 61.4448 31.1187C61.7781 31.8958 62.1903 32.6882 62.5226 33.4497C62.8559 34.1949 63.1729 34.9564 63.6483 35.5747C63.8864 35.9076 64.8373 36.0818 65.2651 36.2562C65.5824 36.3984 66.0735 36.5263 66.3596 36.7004C66.8983 37.0334 67.4373 37.4139 67.9444 37.7785C68.1978 37.9683 68.9909 38.3648 69.0382 38.6811L69.04 38.6797ZM52.8718 24.9023C52.6527 24.9003 52.4344 24.927 52.2222 24.9815V25.0135H52.2535C52.3803 25.2672 52.6024 25.4417 52.7609 25.6638L53.1258 26.4249L53.1571 26.3929C53.3792 26.2344 53.4904 25.9807 53.4904 25.6005C53.3952 25.4896 53.3796 25.3784 53.3003 25.2676C53.2051 25.1091 52.999 25.0295 52.8718 24.903V24.9023Z" fill="#00678C"/>
<path fill-rule="evenodd" clip-rule="evenodd" d="M35.9361 50.5232H41.8974C42.5949 50.5232 43.2612 50.3811 43.7999 50.127C44.7035 49.7148 45.1317 49.1605 45.1317 48.4309V46.909C45.1317 46.3227 44.6403 45.7673 43.6577 45.3871C43.1503 45.197 42.516 45.0857 41.8977 45.0857H39.3925C38.5522 45.0857 38.1559 44.8317 38.0447 44.2773C38.0291 44.2141 38.0291 44.1505 38.0291 44.0872V43.1516C38.0291 43.1036 38.0291 43.0407 38.0447 42.9775C38.1556 42.5493 38.3777 42.4381 39.1108 42.3592H45.2145V40.9794H39.4117C38.5713 40.9794 38.1275 41.0273 37.731 41.1542C36.51 41.5344 35.9709 42.1371 35.9709 43.1989V44.4045C35.9709 45.3391 37.0174 46.1326 38.7931 46.3227C38.9832 46.3387 39.1893 46.3387 39.3954 46.3387H41.536C41.6152 46.3387 41.6941 46.3387 41.7574 46.3547C42.4076 46.4179 42.693 46.5288 42.8831 46.7662C43.01 46.893 43.0419 47.0042 43.0419 47.1471V48.3517C43.0419 48.4938 42.9467 48.685 42.7566 48.8431C42.5665 49.0013 42.2644 49.1125 41.8682 49.1285C41.789 49.1285 41.7421 49.1445 41.6621 49.1445H35.9361V50.5232ZM58.0368 48.1296C58.0368 49.5403 59.1028 50.3328 61.2242 50.4919C61.4303 50.5079 61.6204 50.5232 61.8265 50.5232H67.2171V49.1445H61.7793C60.5736 49.1445 60.1141 48.8431 60.1141 48.114V40.9794H58.0329V48.13L58.0368 48.1296ZM46.4472 48.1925V43.2781C46.4472 42.0255 47.3349 41.264 49.0636 41.0266C49.2537 41.0106 49.4438 40.9946 49.6179 40.9946H53.5495C53.7556 40.9946 53.9304 41.0106 54.1365 41.0266C55.8645 41.264 56.7362 42.0251 56.7362 43.2781V48.1925C56.7362 49.207 56.372 49.7464 55.5152 50.1114L57.5443 51.9499H55.1507L53.5019 50.46L51.8367 50.5552H49.6172C49.2105 50.5532 48.8057 50.5001 48.4123 50.3971C47.0975 50.0318 46.4472 49.3346 46.4472 48.1925ZM48.6823 48.0824C48.6823 48.1456 48.7179 48.2085 48.7303 48.2885C48.8412 48.8588 49.3799 49.1761 50.2043 49.1761H52.0755L50.3635 47.6222H52.7571L54.263 48.986C54.5491 48.8272 54.7232 48.6051 54.7864 48.3197C54.8024 48.2565 54.8024 48.1776 54.8024 48.1136V43.4046C54.8024 43.3413 54.8024 43.2785 54.7864 43.2145C54.6756 42.6758 54.1369 42.3748 53.3281 42.3748H50.2046C49.285 42.3748 48.6827 42.771 48.6827 43.4046L48.6823 48.0824Z" fill="#CE8B2C"/>
</svg>
