<svg width="110" height="110" viewBox="0 0 110 110" fill="none" xmlns="http://www.w3.org/2000/svg">
<rect width="109.659" height="109.659" rx="12.3559" fill="#EDEDED"/>
<path d="M48.123 56.5947H54.4093L51.0888 51.2323L44.9839 60.9176H42.2078L49.6327 49.2977C49.7945 49.0658 50.0096 48.8761 50.2599 48.7445C50.5101 48.6128 50.7883 48.5431 51.0711 48.5411C51.3538 48.539 51.633 48.6048 51.8851 48.7329C52.1372 48.8609 52.355 49.0475 52.5201 49.2771L59.9656 60.9176H57.1895L55.8819 58.752H49.5213L48.1353 56.5947M76.9809 58.752V48.6583H74.6215V59.7461C74.621 59.9002 74.6519 60.0528 74.7122 60.1946C74.7724 60.3364 74.8609 60.4645 74.9721 60.5711C75.0838 60.6854 75.2173 60.776 75.3646 60.8377C75.512 60.8993 75.6703 60.9307 75.8301 60.93H86.5549L87.9532 58.7644H76.9686M37.9715 56.9494C39.071 56.9494 40.1254 56.5127 40.9029 55.7352C41.6803 54.9578 42.1171 53.9034 42.1171 52.8039C42.1171 51.7044 41.6803 50.65 40.9029 49.8725C40.1254 49.0951 39.071 48.6583 37.9715 48.6583H27.6592V60.9176H30.0145V50.8281H37.8271C38.3534 50.8281 38.858 51.0371 39.2301 51.4092C39.6022 51.7813 39.8112 52.2859 39.8112 52.8121C39.8112 53.3384 39.6022 53.843 39.2301 54.2151C38.858 54.5872 38.3534 54.7962 37.8271 54.7962H31.1819L38.219 60.9176H41.6386L36.9114 56.9494H37.9715ZM13.1725 60.9176H20.2962C21.8938 60.8762 23.4121 60.2124 24.5274 59.0678C25.6427 57.9232 26.2668 56.3882 26.2668 54.79C26.2668 53.1919 25.6427 51.6569 24.5274 50.5123C23.4121 49.3677 21.8938 48.7039 20.2962 48.6625H13.1725C12.3544 48.6412 11.5404 48.784 10.7784 49.0824C10.0164 49.3808 9.32184 49.8288 8.73573 50.3999C8.14962 50.971 7.6838 51.6537 7.36574 52.4077C7.04768 53.1617 6.88382 53.9717 6.88382 54.79C6.88382 55.6084 7.04768 56.4184 7.36574 57.1724C7.6838 57.9264 8.14962 58.6091 8.73573 59.1802C9.32184 59.7513 10.0164 60.1993 10.7784 60.4977C11.5404 60.7961 12.3544 60.9389 13.1725 60.9176ZM20.1353 58.7603H13.3292C12.2995 58.7271 11.323 58.2947 10.6063 57.5545C9.88966 56.8143 9.48895 55.8244 9.48895 54.7942C9.48895 53.7639 9.88966 52.774 10.6063 52.0338C11.323 51.2937 12.2995 50.8613 13.3292 50.8281H20.1353C20.6669 50.8109 21.1966 50.9008 21.6927 51.0924C22.1889 51.284 22.6415 51.5734 23.0236 51.9434C23.4057 52.3134 23.7095 52.7564 23.917 53.2461C24.1245 53.7358 24.2314 54.2623 24.2314 54.7942C24.2314 55.326 24.1245 55.8525 23.917 56.3422C23.7095 56.832 23.4057 57.275 23.0236 57.645C22.6415 58.0149 22.1889 58.3043 21.6927 58.4959C21.1966 58.6875 20.6669 58.7774 20.1353 58.7603ZM64.8866 60.9176H72.1589L73.5366 58.7603H65.0475C64.5159 58.7774 63.9863 58.6875 63.4901 58.4959C62.994 58.3043 62.5414 58.0149 62.1593 57.645C61.7772 57.275 61.4733 56.832 61.2658 56.3422C61.0583 55.8525 60.9514 55.326 60.9514 54.7942C60.9514 54.2623 61.0583 53.7358 61.2658 53.2461C61.4733 52.7564 61.7772 52.3134 62.1593 51.9434C62.5414 51.5734 62.994 51.284 63.4901 51.0924C63.9863 50.9008 64.5159 50.8109 65.0475 50.8281H71.9568L73.351 48.6625H64.8866C64.0686 48.6412 63.2546 48.784 62.4926 49.0824C61.7306 49.3808 61.036 49.8288 60.4499 50.3999C59.8638 50.971 59.398 51.6537 59.0799 52.4077C58.7619 53.1617 58.598 53.9717 58.598 54.79C58.598 55.6084 58.7619 56.4184 59.0799 57.1724C59.398 57.9264 59.8638 58.6091 60.4499 59.1802C61.036 59.7513 61.7306 60.1993 62.4926 60.4977C63.2546 60.7961 64.0686 60.9389 64.8866 60.9176ZM93.7075 58.7603C92.8432 58.7606 92.0025 58.4788 91.3131 57.9576C90.6236 57.4364 90.1232 56.7044 89.8878 55.8728H99.9609L101.347 53.7114H89.8878C90.1226 52.8794 90.6229 52.1471 91.3124 51.6258C92.002 51.1045 92.8431 50.8229 93.7075 50.8239H100.621L102.003 48.6583H93.5466C91.949 48.6998 90.4308 49.3636 89.3155 50.5082C88.2002 51.6528 87.576 53.1878 87.576 54.7859C87.576 56.3841 88.2002 57.919 89.3155 59.0636C90.4308 60.2083 91.949 60.872 93.5466 60.9135H100.819L102.201 58.7562H93.7034" fill="#FF6800"/>
</svg>
