<svg width="82" height="82" viewBox="0 0 82 82" fill="none" xmlns="http://www.w3.org/2000/svg">
<rect width="82" height="82" rx="9.23944" fill="#EDEDED"/>
<mask id="mask0_144_186" style="mask-type:luminance" maskUnits="userSpaceOnUse" x="8" y="24" width="65" height="35">
<path d="M8.5267 41.1856C8.5267 50.4808 22.8516 58.0161 40.5216 58.0161C58.1915 58.0161 72.5165 50.4808 72.5165 41.1856C72.5165 31.8906 58.1915 24.3551 40.5216 24.3551C22.8516 24.3551 8.5267 31.8906 8.5267 41.1856Z" fill="white"/>
</mask>
<g mask="url(#mask0_144_186)">
<path d="M8.52669 41.1856C8.52669 50.4808 22.8516 58.0161 40.5215 58.0161C58.1915 58.0161 72.5165 50.4808 72.5165 41.1856C72.5165 31.8906 58.1915 24.3551 40.5215 24.3551C22.8516 24.3551 8.52669 31.8906 8.52669 41.1856Z" fill="url(#paint0_radial_144_186)"/>
</g>
<mask id="mask1_144_186" style="mask-type:luminance" maskUnits="userSpaceOnUse" x="7" y="22" width="67" height="38">
<path d="M7.19353 22.4386H73.8495V59.9326H7.19353V22.4386Z" fill="white"/>
</mask>
<g mask="url(#mask1_144_186)">
<path d="M40.5215 56.7665C57.5013 56.7665 71.2665 49.7906 71.2665 41.1855C71.2665 32.5806 57.5013 25.6046 40.5215 25.6046C23.5417 25.6046 9.77641 32.5806 9.77641 41.1855C9.77641 49.7906 23.5417 56.7665 40.5215 56.7665Z" fill="#777BB3"/>
</g>
<mask id="mask2_144_186" style="mask-type:luminance" maskUnits="userSpaceOnUse" x="7" y="22" width="67" height="38">
<path d="M7.19353 22.4386H73.8495V59.9326H7.19353V22.4386Z" fill="white"/>
</mask>
<g mask="url(#mask2_144_186)">
<path d="M25.9096 43.1172C27.3058 43.1172 28.3481 42.8597 29.0076 42.3522C29.66 41.8498 30.1106 40.9795 30.3468 39.7654C30.567 38.6307 30.4831 37.8383 30.0976 37.4107C29.7033 36.974 28.8509 36.7525 27.5641 36.7525H25.3328L24.0959 43.1172H25.9096ZM18.6118 50.9574C18.5082 50.9574 18.4099 50.9111 18.344 50.831C18.2781 50.7511 18.2513 50.6458 18.2711 50.544L21.5493 33.6774C21.581 33.5144 21.7239 33.3966 21.8901 33.3966H28.9554C31.1759 33.3966 32.8286 33.9995 33.8674 35.1888C34.9118 36.3843 35.2343 38.0554 34.826 40.1557C34.6598 41.0113 34.374 41.806 33.9764 42.5174C33.5785 43.2297 33.0525 43.8887 32.4129 44.4766C31.6473 45.1932 30.7808 45.7128 29.8397 46.0185C28.9136 46.3202 27.7242 46.4732 26.3047 46.4732H23.4438L22.6268 50.6764C22.5951 50.8396 22.4523 50.9574 22.2861 50.9574H18.6118Z" fill="black"/>
<path d="M25.619 37.0997H27.564C29.1171 37.0997 29.6566 37.4405 29.8399 37.6436C30.1441 37.9808 30.2015 38.6918 30.006 39.6996C29.7864 40.8279 29.3792 41.6279 28.7958 42.0771C28.1984 42.537 27.2273 42.7701 25.9096 42.7701H24.517L25.619 37.0997ZM28.9554 33.0494H21.8899C21.5576 33.0494 21.2719 33.285 21.2085 33.6112L17.9303 50.4778C17.8907 50.6814 17.9442 50.8919 18.076 51.0519C18.2079 51.212 18.4044 51.3046 18.6118 51.3046H22.2859C22.6184 51.3046 22.9041 51.069 22.9675 50.7427L23.7299 46.8203H26.3046C27.7606 46.8203 28.9864 46.6616 29.9474 46.3485C30.9358 46.0274 31.8452 45.4829 32.65 44.7303C33.3157 44.1179 33.8639 43.4305 34.2794 42.687C34.6949 41.9432 34.9935 41.1138 35.1667 40.2219C35.5966 38.0111 35.2474 36.2408 34.1288 34.9604C33.0211 33.6924 31.2804 33.0494 28.9554 33.0494ZM23.6746 43.4644H25.9096C27.3909 43.4644 28.4943 43.1854 29.2193 42.6273C29.9444 42.069 30.4335 41.1373 30.6876 39.8318C30.9307 38.5783 30.82 37.6937 30.3554 37.1784C29.8902 36.6631 28.9599 36.4053 27.564 36.4053H25.0466L23.6746 43.4644ZM28.9554 33.7437C31.0808 33.7437 32.6314 34.3015 33.606 35.4172C34.5805 36.5329 34.874 38.0901 34.4851 40.0895C34.3251 40.9131 34.0544 41.6661 33.6733 42.3483C33.2918 43.0309 32.7936 43.6551 32.178 44.2211C31.4443 44.9077 30.6293 45.397 29.7324 45.6883C28.8356 45.9805 27.6933 46.126 26.3046 46.126H23.1575L22.2859 50.6102H18.6118L21.8899 33.7437H28.9554Z" fill="#EDEDED"/>
<path d="M43.2504 46.4733C43.1467 46.4733 43.0484 46.427 42.9826 46.3469C42.9165 46.2669 42.8898 46.1617 42.9096 46.0599L44.3597 38.5971C44.4976 37.8874 44.4636 37.378 44.264 37.1627C44.1418 37.0312 43.7747 36.8105 42.6894 36.8105H40.0622L38.239 46.1923C38.2073 46.3555 38.0644 46.4733 37.8982 46.4733H34.253C34.1493 46.4733 34.051 46.427 33.9851 46.3469C33.9191 46.2669 33.8924 46.1616 33.9122 46.0599L37.1904 29.1933C37.2221 29.0302 37.365 28.9124 37.5312 28.9124H41.1764C41.2801 28.9124 41.3783 28.9587 41.4443 29.0387C41.5103 29.1188 41.537 29.224 41.5172 29.3258L40.7261 33.3967H43.5523C45.7053 33.3967 47.1653 33.7762 48.0156 34.5571C48.8823 35.3538 49.1528 36.6275 48.8195 38.3434L47.2943 46.1923C47.2626 46.3555 47.1198 46.4733 46.9535 46.4733H43.2504Z" fill="black"/>
<path d="M41.1764 28.5651H37.5312C37.1987 28.5651 36.913 28.8008 36.8496 29.127L33.5714 45.9936C33.5318 46.1971 33.5853 46.4076 33.7172 46.5677C33.8491 46.7277 34.0456 46.8203 34.253 46.8203H37.8982C38.2306 46.8203 38.5164 46.5847 38.5798 46.2585L40.3484 37.1575H42.6894C43.7729 37.1575 44.0003 37.389 44.0094 37.3989C44.0751 37.4696 44.1616 37.7971 44.0189 38.5308L42.5688 45.9936C42.5292 46.1971 42.5827 46.4076 42.7146 46.5677C42.8465 46.7277 43.043 46.8203 43.2504 46.8203H46.9535C47.2859 46.8203 47.5717 46.5847 47.6351 46.2585L49.1602 38.4096C49.5181 36.5672 49.2119 35.1851 48.2505 34.3015C47.3331 33.4589 45.7963 33.0494 43.5523 33.0494H41.1471L41.858 29.392C41.8975 29.1884 41.8441 28.9778 41.7122 28.8179C41.5803 28.6578 41.3838 28.5651 41.1764 28.5651ZM41.1764 29.2595L40.3049 33.7437H43.5523C45.5956 33.7437 47.005 34.1004 47.7807 34.8128C48.5564 35.5256 48.7887 36.6806 48.4787 38.2772L46.9535 46.126H43.2504L44.7005 38.6633C44.8655 37.8144 44.8049 37.2353 44.5184 36.9265C44.2317 36.6178 43.622 36.4632 42.6894 36.4632H39.776L37.8982 46.126H34.253L37.5312 29.2595H41.1764Z" fill="#EDEDED"/>
<path d="M54.5872 43.1172C55.9834 43.1172 57.0257 42.8597 57.6852 42.3522C58.3377 41.85 58.7883 40.9796 59.0246 39.7654C59.2448 38.6307 59.1609 37.8383 58.7752 37.4107C58.3809 36.974 57.5285 36.7525 56.2417 36.7525H54.0105L52.7735 43.1172H54.5872ZM47.2896 50.9574C47.186 50.9574 47.0876 50.9111 47.0218 50.831C46.9558 50.7511 46.929 50.6458 46.9488 50.544L50.2269 33.6774C50.2588 33.5144 50.4016 33.3966 50.5678 33.3966H57.633C59.8536 33.3966 61.5062 33.9995 62.5452 35.1888C63.5896 36.3842 63.912 38.0553 63.5037 40.1557C63.3373 41.0113 63.0516 41.806 62.6541 42.5174C62.2561 43.2297 61.7302 43.8887 61.0906 44.4766C60.325 45.1932 59.4584 45.7128 58.5174 46.0185C57.5913 46.3202 56.4019 46.4732 54.9823 46.4732H52.1213L51.3047 50.6764C51.2728 50.8396 51.13 50.9574 50.9637 50.9574H47.2896Z" fill="black"/>
<path d="M54.2967 37.0997H56.2417C57.7948 37.0997 58.3343 37.4405 58.5176 37.6436C58.8219 37.9808 58.8793 38.6918 58.6837 39.6995C58.4641 40.8279 58.0568 41.6279 57.4735 42.0771C56.8761 42.537 55.905 42.7701 54.5872 42.7701H53.1948L54.2967 37.0997ZM57.6331 33.0494H50.5678C50.2354 33.0494 49.9497 33.285 49.8863 33.6112L46.6081 50.4778C46.5685 50.6814 46.622 50.8919 46.7538 51.0519C46.8857 51.212 47.0822 51.3046 47.2896 51.3046H50.9638C51.2961 51.3046 51.5819 51.069 51.6454 50.7427L52.4076 46.8203H54.9823C56.4383 46.8203 57.6641 46.6616 58.6251 46.3485C59.6135 46.0274 60.5231 45.4828 61.3279 44.73C61.9936 44.1178 62.5416 43.4305 62.9571 42.687C63.3726 41.9432 63.6712 41.1138 63.8444 40.2219C64.2743 38.011 63.9251 36.2407 62.8065 34.9603C61.6988 33.6924 59.9583 33.0494 57.6331 33.0494ZM52.3524 43.4644H54.5872C56.0686 43.4644 57.172 43.1854 57.897 42.6273C58.6222 42.069 59.1112 41.1373 59.3653 39.8318C59.6085 38.5783 59.4978 37.6937 59.0331 37.1784C58.5679 36.6631 57.6376 36.4053 56.2417 36.4053H53.7243L52.3524 43.4644ZM57.6331 33.7437C59.7585 33.7437 61.3091 34.3015 62.2837 35.4172C63.2583 36.5329 63.5517 38.0901 63.1628 40.0895C63.0028 40.9131 62.7321 41.6661 62.351 42.3483C61.9695 43.0309 61.4713 43.6551 60.8557 44.2211C60.122 44.9077 59.307 45.397 58.4101 45.6883C57.5133 45.9805 56.371 46.126 54.9823 46.126H51.8351L50.9638 50.6102H47.2896L50.5678 33.7437H57.6331Z" fill="#EDEDED"/>
</g>
<defs>
<radialGradient id="paint0_radial_144_186" cx="0" cy="0" r="1" gradientUnits="userSpaceOnUse" gradientTransform="translate(27.7366 30.2722) scale(42.0138 42.0138)">
<stop stop-color="#AEB2D5"/>
<stop offset="0.3" stop-color="#AEB2D5"/>
<stop offset="0.75" stop-color="#484C89"/>
<stop offset="1" stop-color="#484C89"/>
</radialGradient>
</defs>
</svg>
