<svg width="131" height="131" viewBox="0 0 131 131" fill="none" xmlns="http://www.w3.org/2000/svg">
<rect width="130.295" height="130.295" rx="14.6811" fill="#EDEDED"/>
<g clip-path="url(#clip0_144_183)">
<path d="M84.3609 82.8992C84.875 78.6191 84.7204 77.9945 87.9061 78.6853L88.7167 78.7579C91.1675 78.8682 94.3721 78.3636 96.2867 77.4899C100.34 75.61 102.743 72.4685 98.7469 73.2949C89.6314 75.1748 88.9691 72.0869 88.9691 72.0869C98.5986 57.7986 102.626 39.6623 99.1475 35.2244C89.6724 23.1126 73.2678 28.8405 72.9933 28.9919L72.905 29.0076C71.1072 28.6291 69.1201 28.4083 66.8175 28.3768C62.6919 28.3137 59.563 29.4587 57.1848 31.2597C57.1848 31.2597 27.9239 19.2046 29.2833 46.4216C29.5735 52.2126 37.5787 90.2641 47.1357 78.7515C50.6337 74.5439 54.0086 70.9892 54.0086 70.9892C55.6803 72.1026 57.6895 72.6704 59.7933 72.4654L59.9573 72.3266C59.9088 72.8718 59.931 73.4209 60.0235 73.9604C57.5633 76.7108 58.2888 77.1934 53.3683 78.2059C48.3911 79.231 51.3181 81.0572 53.2232 81.5367C55.5384 82.117 60.8941 82.9371 64.515 77.8715L64.3699 78.4487C65.3351 79.2215 65.2689 84 65.4108 87.4128C65.5527 90.8256 65.7767 94.0144 66.4737 95.8911C67.1708 97.7678 67.9877 102.609 74.4537 101.253C79.8568 100.096 83.9887 98.4271 84.3672 82.9276" fill="black"/>
<path d="M84.3609 82.8992C84.875 78.6191 84.7204 77.9945 87.9061 78.6853L88.7167 78.7579C91.1675 78.8682 94.3721 78.3636 96.2867 77.4899C100.34 75.61 102.743 72.4685 98.7469 73.2949C89.6314 75.1748 88.9691 72.0869 88.9691 72.0869C98.5986 57.7986 102.626 39.6623 99.1475 35.2244C89.6724 23.1126 73.2678 28.8405 72.9933 28.9919L72.905 29.0076C71.1072 28.6291 69.1201 28.4083 66.8175 28.3768C62.6919 28.3137 59.563 29.4587 57.1848 31.2597C57.1848 31.2597 27.9239 19.2046 29.2833 46.4216C29.5735 52.2126 37.5787 90.2641 47.1357 78.7515C50.6337 74.5439 54.0086 70.9892 54.0086 70.9892C55.6803 72.1026 57.6895 72.6704 59.7933 72.4654L59.9573 72.3266C59.9088 72.8718 59.931 73.4209 60.0235 73.9604C57.5633 76.7108 58.2888 77.1934 53.3683 78.2059C48.3911 79.231 51.3181 81.0572 53.2232 81.5366C55.5384 82.117 60.8941 82.9371 64.515 77.8715L64.3699 78.4487C65.3351 79.2215 65.2689 84 65.4108 87.4128C65.5527 90.8256 65.7767 94.0144 66.4737 95.8911C67.1708 97.7678 67.9877 102.609 74.4537 101.253C79.8568 100.096 83.9887 98.4271 84.3672 82.9276" stroke="black" stroke-width="6.77824"/>
<path d="M98.7186 73.3232C89.6031 75.2031 88.9408 72.1152 88.9408 72.1152C98.5703 57.8269 102.598 39.6906 99.1223 35.2528C89.6473 23.1409 73.2426 28.872 72.9682 29.0202L72.8799 29.036C70.8762 28.6339 68.8391 28.4217 66.7956 28.402C62.67 28.3389 59.5411 29.4839 57.1628 31.2849C57.1628 31.2849 27.8988 19.2298 29.2613 46.4468C29.5515 52.2378 37.5567 90.2893 47.1138 78.7767C50.6338 74.5439 54.0087 70.9892 54.0087 70.9892C55.6804 72.1026 57.6896 72.6703 59.7934 72.4653L59.9574 72.3265C59.9092 72.8717 59.9315 73.4208 60.0236 73.9604C57.5634 76.7108 58.2889 77.1933 53.3684 78.2058C48.3912 79.2309 51.3182 81.0572 53.2233 81.5366C55.5385 82.117 60.8942 82.937 64.5151 77.8715L64.37 78.4487C65.3352 79.2215 66.0102 83.4732 65.8966 87.3276C65.7831 91.1819 65.7074 93.8251 66.4644 95.8942C67.2214 97.9633 67.9784 102.613 74.4444 101.256C79.8474 100.099 82.6451 97.0928 83.0394 92.0903C83.3169 88.5325 83.9415 89.0561 83.9856 85.8767L84.4903 84.369C85.0675 79.5432 84.5849 77.9882 87.9125 78.7136L88.7231 78.7862C91.1739 78.8966 94.3817 78.3919 96.2615 77.5182C100.315 75.6384 102.715 72.4968 98.7186 73.3232Z" fill="#336791"/>
<path d="M64.9032 76.0579C64.6509 85.0346 64.9663 94.0744 65.8431 96.2444C66.72 98.4145 68.603 102.71 75.0721 101.329C80.4752 100.171 82.4434 97.9287 83.295 92.9799L85.2916 77.1556M57.1503 31.0579C57.1503 31.0579 27.8673 19.0848 29.2299 46.3018C29.5201 52.0928 37.5253 90.1443 47.0823 78.6317C50.5708 74.4273 53.7249 71.1375 53.7249 71.1375M72.9652 28.8721C71.9559 29.1875 89.2531 22.548 99.0878 35.1109C102.557 39.5488 98.5358 57.6851 88.9062 71.9733" stroke="#EDEDED" stroke-width="2.25836" stroke-linecap="round" stroke-linejoin="round"/>
<path d="M88.9092 71.9669C88.9092 71.9669 89.54 75.058 98.687 73.1718C102.683 72.3454 100.277 75.4869 96.2268 77.3668C92.9024 78.9123 85.446 79.3066 85.323 77.1776C85.0076 71.6736 89.2467 73.3453 88.9408 71.9669C88.6632 70.7242 86.7644 69.5067 85.5154 66.4661C84.4209 63.8166 70.5017 43.4724 89.376 46.491C90.0699 46.349 84.4556 28.5124 66.7924 28.2537C49.1292 27.9951 49.6875 49.97 49.6875 49.97" stroke="#EDEDED" stroke-width="2.25836" stroke-linecap="round" stroke-linejoin="bevel"/>
<path d="M59.9607 73.8532C57.5004 76.6036 58.2259 77.0862 53.3054 78.0987C48.3282 79.1238 51.2553 80.95 53.1603 81.4295C55.4755 82.0098 60.8312 82.8299 64.4522 77.7612C65.5561 76.2157 64.4459 73.7554 62.9319 73.1309C62.2001 72.8281 61.2223 72.4496 59.967 73.8564L59.9607 73.8532Z" stroke="#EDEDED" stroke-width="2.25836" stroke-linejoin="round"/>
<path d="M59.7999 73.806C59.5476 72.1879 60.3298 70.2671 61.1657 68.015C62.421 64.6401 65.3165 61.2651 63.0014 50.5505C61.2761 42.5706 49.6909 48.8883 49.6909 49.9702C49.6909 51.052 50.2145 55.4584 49.5017 60.5839C48.5649 67.2769 53.7597 72.9355 59.74 72.3582" stroke="#EDEDED" stroke-width="2.25836" stroke-linecap="round" stroke-linejoin="round"/>
<path d="M57.0435 49.8094C56.9898 50.1784 57.7216 51.1656 58.671 51.2981C59.6204 51.4306 60.431 50.661 60.4846 50.2888C60.5382 49.9166 59.8065 49.5129 58.8571 49.3804C57.9077 49.2479 57.0908 49.4435 57.0435 49.8094Z" fill="#EDEDED" stroke="#EDEDED" stroke-width="0.753839"/>
<path d="M85.9481 49.0555C85.9986 49.4245 85.27 50.4117 84.3206 50.5442C83.3712 50.6767 82.5543 49.9071 82.507 49.5349C82.4597 49.1627 83.1851 48.759 84.1345 48.6265C85.0839 48.494 85.9008 48.6896 85.9481 49.0555Z" fill="#EDEDED" stroke="#EDEDED" stroke-width="0.375342"/>
<path d="M89.3417 46.4972C89.4995 49.399 88.7172 51.3703 88.6163 54.4582C88.4712 58.9434 90.7548 64.0784 87.3136 69.2196" stroke="#EDEDED" stroke-width="2.25836" stroke-linecap="round" stroke-linejoin="round"/>
</g>
<defs>
<clipPath id="clip0_144_183">
<rect width="80.7459" height="80.7459" fill="white" transform="translate(24.486 24.1189)"/>
</clipPath>
</defs>
</svg>
