<svg width="137" height="137" viewBox="0 0 137 137" fill="none" xmlns="http://www.w3.org/2000/svg">
<rect width="136.336" height="136.336" rx="15.3618" fill="#EDEDED"/>
<path d="M20.6234 87.4263C19.6042 87.4263 18.7372 87.0864 18.0222 86.4066C17.3094 85.7108 16.953 84.8841 16.953 83.9267C16.953 82.95 17.3094 82.1138 18.0222 81.418C18.7372 80.7212 19.6042 80.3728 20.6234 80.3728C21.6607 80.3728 22.5357 80.7212 23.2485 81.418C23.9794 82.1138 24.3449 82.95 24.3449 83.9267C24.3449 84.8841 23.9794 85.7113 23.2485 86.4082C22.5347 87.088 21.6596 87.4279 20.6234 87.4279M61.3806 86.8518H54.7516L37.2933 59.308C36.857 58.6226 36.4898 57.8956 36.197 57.1377H36.0438C36.181 57.9398 36.2491 59.6564 36.2481 62.2874V86.8518H30.3866V49.3772H37.4465L54.3191 76.2667C55.033 77.3838 55.4915 78.1509 55.6947 78.5679H55.7968C55.6266 77.5742 55.5415 75.8933 55.5415 73.5251V49.3772H61.379L61.3806 86.8518ZM89.9266 86.8518H69.4076V49.3772H89.1095V54.6562H75.4733V65.2652H88.0387V70.5186H75.4733V81.5984H89.925L89.9266 86.8518ZM119.085 54.6562H108.585V86.8518H102.518V54.6562H92.0426V49.3772H119.085V54.6562Z" fill="#512BD4"/>
</svg>
