<svg width="370" height="306" viewBox="0 0 370 306" fill="none" xmlns="http://www.w3.org/2000/svg">
<rect x="9" y="27.8506" width="109.659" height="109.659" rx="12.3559" fill="#EDEDED"/>
<path d="M57.1229 84.4453H63.4093L60.0887 79.0829L53.9839 88.7682H51.2078L58.6326 77.1483C58.7945 76.9164 59.0096 76.7267 59.2598 76.5951C59.5101 76.4634 59.7883 76.3937 60.071 76.3916C60.3538 76.3896 60.6329 76.4554 60.8851 76.5835C61.1372 76.7115 61.3549 76.8981 61.5201 77.1277L68.9656 88.7682H66.1895L64.8819 86.6026H58.5213L57.1353 84.4453M85.9809 86.6026V76.5089H83.6214V87.5967C83.621 87.7508 83.6519 87.9034 83.7121 88.0452C83.7724 88.187 83.8608 88.3151 83.9721 88.4217C84.0837 88.536 84.2172 88.6266 84.3646 88.6883C84.512 88.7499 84.6703 88.7813 84.83 88.7806H95.5548L96.9532 86.615H85.9685M46.9715 84.8C48.0709 84.8 49.1254 84.3633 49.9028 83.5858C50.6803 82.8084 51.117 81.754 51.117 80.6545C51.117 79.555 50.6803 78.5006 49.9028 77.7231C49.1254 76.9457 48.0709 76.5089 46.9715 76.5089H36.6592V88.7682H39.0145V78.6786H46.8271C47.3533 78.6786 47.858 78.8877 48.2301 79.2598C48.6022 79.6319 48.8112 80.1365 48.8112 80.6627C48.8112 81.1889 48.6022 81.6936 48.2301 82.0657C47.858 82.4378 47.3533 82.6468 46.8271 82.6468H40.1819L47.219 88.7682H50.6385L45.9114 84.8H46.9715ZM22.1724 88.7682H29.2962C30.8938 88.7268 32.412 88.063 33.5273 86.9184C34.6426 85.7737 35.2668 84.2388 35.2668 82.6406C35.2668 81.0425 34.6426 79.5075 33.5273 78.3629C32.412 77.2183 30.8938 76.5545 29.2962 76.5131H22.1724C21.3544 76.4918 20.5403 76.6346 19.7783 76.933C19.0163 77.2314 18.3218 77.6794 17.7357 78.2505C17.1496 78.8216 16.6838 79.5042 16.3657 80.2582C16.0477 81.0122 15.8838 81.8223 15.8838 82.6406C15.8838 83.459 16.0477 84.269 16.3657 85.023C16.6838 85.777 17.1496 86.4597 17.7357 87.0308C18.3218 87.6019 19.0163 88.0499 19.7783 88.3482C20.5403 88.6466 21.3544 88.7894 22.1724 88.7682ZM29.1353 86.6109H22.3292C21.2994 86.5777 20.323 86.1453 19.6063 85.4051C18.8896 84.6649 18.4889 83.675 18.4889 82.6448C18.4889 81.6145 18.8896 80.6246 19.6063 79.8844C20.323 79.1443 21.2994 78.7119 22.3292 78.6786H29.1353C29.6669 78.6615 30.1965 78.7514 30.6927 78.943C31.1889 79.1346 31.6414 79.424 32.0236 79.794C32.4057 80.1639 32.7095 80.607 32.917 81.0967C33.1245 81.5864 33.2314 82.1129 33.2314 82.6448C33.2314 83.1766 33.1245 83.7031 32.917 84.1928C32.7095 84.6826 32.4057 85.1256 32.0236 85.4956C31.6414 85.8655 31.1889 86.1549 30.6927 86.3465C30.1965 86.5381 29.6669 86.628 29.1353 86.6109ZM73.8866 88.7682H81.1589L82.5366 86.6109H74.0475C73.5159 86.628 72.9863 86.5381 72.4901 86.3465C71.9939 86.1549 71.5413 85.8655 71.1592 85.4956C70.7771 85.1256 70.4733 84.6826 70.2658 84.1928C70.0583 83.7031 69.9514 83.1766 69.9514 82.6448C69.9514 82.1129 70.0583 81.5864 70.2658 81.0967C70.4733 80.607 70.7771 80.1639 71.1592 79.794C71.5413 79.424 71.9939 79.1346 72.4901 78.943C72.9863 78.7514 73.5159 78.6615 74.0475 78.6786H80.9567L82.351 76.5131H73.8866C73.0686 76.4918 72.2545 76.6346 71.4925 76.933C70.7305 77.2314 70.036 77.6794 69.4499 78.2505C68.8638 78.8216 68.398 79.5042 68.0799 80.2582C67.7618 81.0122 67.598 81.8223 67.598 82.6406C67.598 83.459 67.7618 84.269 68.0799 85.023C68.398 85.777 68.8638 86.4597 69.4499 87.0308C70.036 87.6019 70.7305 88.0499 71.4925 88.3482C72.2545 88.6466 73.0686 88.7894 73.8866 88.7682ZM102.707 86.6109C101.843 86.6112 101.002 86.3294 100.313 85.8082C99.6236 85.287 99.1232 84.555 98.8878 83.7234H108.961L110.347 81.562H98.8878C99.1226 80.73 99.6228 79.9976 100.312 79.4764C101.002 78.9551 101.843 78.6735 102.707 78.6745H109.621L111.003 76.5089H102.547C100.949 76.5504 99.4307 77.2142 98.3154 78.3588C97.2001 79.5034 96.576 81.0384 96.576 82.6365C96.576 84.2347 97.2001 85.7696 98.3154 86.9142C99.4307 88.0589 100.949 88.7226 102.547 88.7641H109.819L111.201 86.6068H102.703" fill="#FF6800"/>
<rect x="275" y="170.851" width="94.8331" height="94.8331" rx="10.6854" fill="#EDEDED"/>
<g clip-path="url(#clip0_313_274)">
<path d="M341.097 191.458H353.614L322.321 245.439L291.028 191.458H303.389H314.967L322.321 203.975L329.518 191.458H341.097Z" fill="#41B883"/>
<path d="M291.028 191.458L322.321 245.439L353.614 191.458H341.097L322.321 223.847L303.389 191.458H291.028Z" fill="#41B883"/>
<path d="M303.389 191.458L322.321 224.003L341.097 191.458H329.519L322.321 203.975L314.967 191.458H303.389Z" fill="#35495E"/>
</g>
<rect x="119" y="168.851" width="136.336" height="136.336" rx="15.3618" fill="#EDEDED"/>
<path d="M139.624 256.277C138.604 256.277 137.737 255.937 137.022 255.257C136.31 254.561 135.953 253.735 135.953 252.777C135.953 251.801 136.31 250.964 137.022 250.269C137.737 249.572 138.604 249.223 139.624 249.223C140.661 249.223 141.536 249.572 142.249 250.269C142.98 250.964 143.345 251.801 143.345 252.777C143.345 253.735 142.98 254.562 142.249 255.259C141.535 255.939 140.66 256.278 139.624 256.278M180.381 255.702H173.752L156.293 228.159C155.857 227.473 155.49 226.746 155.197 225.988H155.044C155.181 226.79 155.249 228.507 155.248 231.138V255.702H149.387V218.228H156.447L173.319 245.117C174.033 246.234 174.492 247.001 174.695 247.418H174.797C174.627 246.425 174.542 244.744 174.542 242.376V218.228H180.379L180.381 255.702ZM208.927 255.702H188.408V218.228H208.11V223.507H194.473V234.116H207.039V239.369H194.473V250.449H208.925L208.927 255.702ZM238.085 223.507H227.585V255.702H221.518V223.507H211.043V218.228H238.085V223.507Z" fill="#512BD4"/>
<rect y="168.851" width="82" height="82" rx="9.23944" fill="#EDEDED"/>
<mask id="mask0_313_274" style="mask-type:luminance" maskUnits="userSpaceOnUse" x="8" y="193" width="65" height="34">
<path d="M8.52686 210.036C8.52686 219.331 22.8518 226.866 40.5217 226.866C58.1917 226.866 72.5167 219.331 72.5167 210.036C72.5167 200.741 58.1917 193.205 40.5217 193.205C22.8518 193.205 8.52686 200.741 8.52686 210.036Z" fill="white"/>
</mask>
<g mask="url(#mask0_313_274)">
<path d="M8.52686 210.036C8.52686 219.331 22.8518 226.866 40.5217 226.866C58.1917 226.866 72.5167 219.331 72.5167 210.036C72.5167 200.741 58.1917 193.205 40.5217 193.205C22.8518 193.205 8.52686 200.741 8.52686 210.036Z" fill="url(#paint0_radial_313_274)"/>
</g>
<mask id="mask1_313_274" style="mask-type:luminance" maskUnits="userSpaceOnUse" x="7" y="191" width="67" height="38">
<path d="M7.1936 191.289H73.8495V228.783H7.1936V191.289Z" fill="white"/>
</mask>
<g mask="url(#mask1_313_274)">
<path d="M40.5214 225.617C57.5012 225.617 71.2665 218.641 71.2665 210.036C71.2665 201.431 57.5012 194.455 40.5214 194.455C23.5416 194.455 9.77637 201.431 9.77637 210.036C9.77637 218.641 23.5416 225.617 40.5214 225.617Z" fill="#777BB3"/>
</g>
<mask id="mask2_313_274" style="mask-type:luminance" maskUnits="userSpaceOnUse" x="7" y="191" width="67" height="38">
<path d="M7.1936 191.289H73.8495V228.783H7.1936V191.289Z" fill="white"/>
</mask>
<g mask="url(#mask2_313_274)">
<path d="M25.9095 211.968C27.3057 211.968 28.348 211.71 29.0075 211.203C29.6599 210.701 30.1106 209.83 30.3468 208.616C30.567 207.481 30.4831 206.689 30.0975 206.261C29.7032 205.825 28.8508 205.603 27.564 205.603H25.3327L24.0958 211.968H25.9095ZM18.6117 219.808C18.5081 219.808 18.4098 219.762 18.3439 219.682C18.278 219.602 18.2512 219.496 18.271 219.395L21.5492 202.528C21.5809 202.365 21.7238 202.247 21.89 202.247H28.9553C31.1758 202.247 32.8285 202.85 33.8674 204.039C34.9118 205.235 35.2343 206.906 34.8259 209.006C34.6597 209.862 34.3739 210.657 33.9764 211.368C33.5784 212.08 33.0524 212.739 32.4129 213.327C31.6472 214.044 30.7807 214.563 29.8397 214.869C28.9135 215.171 27.7241 215.324 26.3046 215.324H23.4437L22.6267 219.527C22.595 219.69 22.4522 219.808 22.286 219.808H18.6117Z" fill="black"/>
<path d="M25.6189 205.95H27.564C29.1171 205.95 29.6566 206.291 29.8399 206.494C30.144 206.831 30.2014 207.542 30.006 208.55C29.7863 209.679 29.3792 210.479 28.7957 210.928C28.1984 211.388 27.2273 211.621 25.9095 211.621H24.5169L25.6189 205.95ZM28.9553 201.9H21.8899C21.5576 201.9 21.2718 202.136 21.2084 202.462L17.9303 219.329C17.8907 219.532 17.9441 219.743 18.0759 219.903C18.2079 220.063 18.4044 220.155 18.6117 220.155H22.2859C22.6184 220.155 22.9041 219.92 22.9675 219.593L23.7299 215.671H26.3046C27.7606 215.671 28.9863 215.512 29.9474 215.199C30.9358 214.878 31.8451 214.334 32.65 213.581C33.3156 212.969 33.8639 212.281 34.2794 211.538C34.6949 210.794 34.9935 209.965 35.1667 209.073C35.5966 206.862 35.2474 205.091 34.1288 203.811C33.0211 202.543 31.2804 201.9 28.9553 201.9ZM23.6746 212.315H25.9095C27.3909 212.315 28.4943 212.036 29.2193 211.478C29.9444 210.92 30.4334 209.988 30.6876 208.682C30.9307 207.429 30.82 206.544 30.3553 206.029C29.8901 205.514 28.9598 205.256 27.564 205.256H25.0466L23.6746 212.315ZM28.9553 202.594C31.0808 202.594 32.6314 203.152 33.606 204.268C34.5805 205.384 34.8739 206.941 34.4851 208.94C34.3251 209.764 34.0544 210.517 33.6733 211.199C33.2918 211.882 32.7936 212.506 32.178 213.072C31.4443 213.758 30.6292 214.248 29.7324 214.539C28.8356 214.831 27.6933 214.977 26.3046 214.977H23.1574L22.2859 219.461H18.6117L21.8899 202.594H28.9553Z" fill="#EDEDED"/>
<path d="M43.2503 215.324C43.1467 215.324 43.0484 215.278 42.9826 215.198C42.9165 215.118 42.8898 215.012 42.9095 214.911L44.3597 207.448C44.4976 206.738 44.4636 206.229 44.264 206.013C44.1418 205.882 43.7747 205.661 42.6893 205.661H40.0622L38.239 215.043C38.2073 215.206 38.0644 215.324 37.8982 215.324H34.2529C34.1493 215.324 34.051 215.278 33.9851 215.198C33.9191 215.118 33.8924 215.012 33.9121 214.911L37.1903 198.044C37.222 197.881 37.3649 197.763 37.5311 197.763H41.1764C41.2801 197.763 41.3783 197.809 41.4443 197.889C41.5102 197.969 41.537 198.075 41.5172 198.177L40.7261 202.247H43.5523C45.7053 202.247 47.1652 202.627 48.0155 203.408C48.8823 204.204 49.1528 205.478 48.8195 207.194L47.2943 215.043C47.2625 215.206 47.1197 215.324 46.9535 215.324H43.2503Z" fill="black"/>
<path d="M41.1764 197.416H37.5311C37.1987 197.416 36.913 197.651 36.8495 197.978L33.5714 214.844C33.5318 215.048 33.5853 215.258 33.7172 215.418C33.8491 215.578 34.0456 215.671 34.253 215.671H37.8982C38.2306 215.671 38.5164 215.435 38.5798 215.109L40.3484 206.008H42.6893C43.7728 206.008 44.0002 206.24 44.0094 206.25C44.0751 206.32 44.1616 206.648 44.0189 207.381L42.5688 214.844C42.5292 215.048 42.5826 215.258 42.7146 215.418C42.8465 215.578 43.043 215.671 43.2504 215.671H46.9535C47.2858 215.671 47.5717 215.435 47.6351 215.109L49.1602 207.26C49.5181 205.418 49.2119 204.036 48.2505 203.152C47.333 202.31 45.7962 201.9 43.5523 201.9H41.1471L41.858 198.243C41.8975 198.039 41.8441 197.829 41.7122 197.669C41.5803 197.509 41.3838 197.416 41.1764 197.416ZM41.1764 198.11L40.3049 202.594H43.5523C45.5956 202.594 47.005 202.951 47.7807 203.663C48.5563 204.376 48.7887 205.531 48.4787 207.128L46.9535 214.977H43.2504L44.7005 207.514C44.8655 206.665 44.8049 206.086 44.5183 205.777C44.2317 205.468 43.6219 205.314 42.6893 205.314H39.7759L37.8982 214.977H34.253L37.5311 198.11H41.1764Z" fill="#EDEDED"/>
<path d="M54.5872 211.968C55.9834 211.968 57.0257 211.71 57.6852 211.203C58.3377 210.701 58.7883 209.83 59.0246 208.616C59.2448 207.481 59.1609 206.689 58.7752 206.261C58.3809 205.825 57.5285 205.603 56.2417 205.603H54.0105L52.7735 211.968H54.5872ZM47.2896 219.808C47.186 219.808 47.0876 219.762 47.0218 219.682C46.9558 219.602 46.929 219.496 46.9488 219.395L50.2269 202.528C50.2588 202.365 50.4016 202.247 50.5678 202.247H57.633C59.8536 202.247 61.5062 202.85 62.5452 204.039C63.5896 205.235 63.912 206.906 63.5037 209.006C63.3373 209.862 63.0516 210.657 62.6541 211.368C62.2561 212.08 61.7302 212.739 61.0906 213.327C60.325 214.044 59.4584 214.563 58.5174 214.869C57.5913 215.171 56.4019 215.324 54.9823 215.324H52.1213L51.3047 219.527C51.2728 219.69 51.13 219.808 50.9637 219.808H47.2896Z" fill="black"/>
<path d="M54.2966 205.95H56.2416C57.7947 205.95 58.3342 206.291 58.5175 206.494C58.8218 206.831 58.8792 207.542 58.6836 208.55C58.4639 209.679 58.0567 210.479 57.4734 210.928C56.876 211.388 55.9049 211.621 54.5871 211.621H53.1947L54.2966 205.95ZM57.6329 201.9H50.5676C50.2353 201.9 49.9496 202.136 49.8862 202.462L46.608 219.329C46.5684 219.532 46.6219 219.743 46.7537 219.903C46.8856 220.063 47.0821 220.155 47.2895 220.155H50.9637C51.296 220.155 51.5818 219.92 51.6453 219.593L52.4075 215.671H54.9822C56.4382 215.671 57.664 215.512 58.625 215.199C59.6134 214.878 60.523 214.334 61.3278 213.581C61.9935 212.968 62.5415 212.281 62.957 211.538C63.3725 210.794 63.6711 209.965 63.8443 209.073C64.2742 206.862 63.925 205.091 62.8064 203.811C61.6987 202.543 59.9582 201.9 57.6329 201.9ZM52.3523 212.315H54.5871C56.0685 212.315 57.1719 212.036 57.8969 211.478C58.6221 210.92 59.1111 209.988 59.3652 208.682C59.6084 207.429 59.4977 206.544 59.033 206.029C58.5677 205.514 57.6375 205.256 56.2416 205.256H53.7242L52.3523 212.315ZM57.6329 202.594C59.7584 202.594 61.309 203.152 62.2836 204.268C63.2582 205.384 63.5516 206.941 63.1627 208.94C63.0027 209.764 62.732 210.517 62.3509 211.199C61.9694 211.882 61.4712 212.506 60.8556 213.072C60.1219 213.758 59.3069 214.248 58.41 214.539C57.5132 214.831 56.3709 214.977 54.9822 214.977H51.835L50.9637 219.461H47.2895L50.5676 202.594H57.6329Z" fill="#EDEDED"/>
</g>
<rect x="140" width="130.295" height="130.295" rx="14.6811" fill="#EDEDED"/>
<g clip-path="url(#clip1_313_274)">
<path d="M224.361 82.8992C224.875 78.6191 224.72 77.9945 227.906 78.6853L228.717 78.7579C231.167 78.8682 234.372 78.3636 236.287 77.4899C240.34 75.61 242.743 72.4685 238.747 73.2949C229.631 75.1748 228.969 72.0869 228.969 72.0869C238.599 57.7986 242.626 39.6623 239.147 35.2244C229.672 23.1126 213.268 28.8405 212.993 28.9919L212.905 29.0076C211.107 28.6291 209.12 28.4083 206.817 28.3768C202.692 28.3137 199.563 29.4587 197.185 31.2597C197.185 31.2597 167.924 19.2046 169.283 46.4216C169.573 52.2126 177.579 90.2641 187.136 78.7515C190.634 74.5439 194.009 70.9892 194.009 70.9892C195.68 72.1026 197.689 72.6704 199.793 72.4654L199.957 72.3266C199.909 72.8718 199.931 73.4209 200.023 73.9604C197.563 76.7108 198.289 77.1934 193.368 78.2059C188.391 79.231 191.318 81.0572 193.223 81.5367C195.538 82.117 200.894 82.9371 204.515 77.8715L204.37 78.4487C205.335 79.2215 205.269 84 205.411 87.4128C205.553 90.8256 205.777 94.0144 206.474 95.8911C207.171 97.7678 207.988 102.609 214.454 101.253C219.857 100.096 223.989 98.4271 224.367 82.9276" fill="black"/>
<path d="M224.361 82.8992C224.875 78.6191 224.72 77.9945 227.906 78.6853L228.717 78.7579C231.167 78.8682 234.372 78.3636 236.287 77.4899C240.34 75.61 242.743 72.4685 238.747 73.2949C229.631 75.1748 228.969 72.0869 228.969 72.0869C238.599 57.7986 242.626 39.6623 239.147 35.2244C229.672 23.1126 213.268 28.8405 212.993 28.9919L212.905 29.0076C211.107 28.6291 209.12 28.4083 206.817 28.3768C202.692 28.3137 199.563 29.4587 197.185 31.2597C197.185 31.2597 167.924 19.2046 169.283 46.4216C169.573 52.2126 177.579 90.2641 187.136 78.7515C190.634 74.5439 194.009 70.9892 194.009 70.9892C195.68 72.1026 197.689 72.6704 199.793 72.4654L199.957 72.3266C199.909 72.8718 199.931 73.4209 200.023 73.9604C197.563 76.7108 198.289 77.1934 193.368 78.2059C188.391 79.231 191.318 81.0572 193.223 81.5366C195.538 82.117 200.894 82.9371 204.515 77.8715L204.37 78.4487C205.335 79.2215 205.269 84 205.411 87.4128C205.553 90.8256 205.777 94.0144 206.474 95.8911C207.171 97.7678 207.988 102.609 214.454 101.253C219.857 100.096 223.989 98.4271 224.367 82.9276" stroke="black" stroke-width="6.77824"/>
<path d="M238.719 73.3232C229.603 75.2031 228.941 72.1152 228.941 72.1152C238.57 57.8269 242.598 39.6906 239.122 35.2528C229.647 23.1409 213.243 28.872 212.968 29.0202L212.88 29.036C210.876 28.6339 208.839 28.4217 206.796 28.402C202.67 28.3389 199.541 29.4839 197.163 31.2849C197.163 31.2849 167.899 19.2298 169.261 46.4468C169.552 52.2378 177.557 90.2893 187.114 78.7767C190.634 74.5439 194.009 70.9892 194.009 70.9892C195.681 72.1026 197.69 72.6703 199.794 72.4653L199.958 72.3265C199.909 72.8717 199.932 73.4208 200.024 73.9604C197.564 76.7108 198.289 77.1933 193.369 78.2058C188.391 79.2309 191.318 81.0572 193.223 81.5366C195.539 82.117 200.894 82.937 204.515 77.8715L204.37 78.4487C205.335 79.2215 206.01 83.4732 205.897 87.3276C205.783 91.1819 205.708 93.8251 206.465 95.8942C207.222 97.9633 207.979 102.613 214.444 101.256C219.848 100.099 222.645 97.0928 223.04 92.0903C223.317 88.5325 223.942 89.0561 223.986 85.8767L224.49 84.369C225.068 79.5432 224.585 77.9882 227.913 78.7136L228.723 78.7862C231.174 78.8966 234.382 78.3919 236.262 77.5182C240.315 75.6384 242.715 72.4968 238.719 73.3232Z" fill="#336791"/>
<path d="M204.903 76.0579C204.651 85.0346 204.966 94.0744 205.843 96.2444C206.72 98.4145 208.603 102.71 215.072 101.329C220.475 100.171 222.443 97.9287 223.295 92.9799L225.292 77.1556M197.15 31.0579C197.15 31.0579 167.867 19.0848 169.23 46.3018C169.52 52.0928 177.525 90.1443 187.082 78.6317C190.571 74.4273 193.725 71.1375 193.725 71.1375M212.965 28.8721C211.956 29.1875 229.253 22.548 239.088 35.1109C242.557 39.5488 238.536 57.6851 228.906 71.9733" stroke="#EDEDED" stroke-width="2.25836" stroke-linecap="round" stroke-linejoin="round"/>
<path d="M228.909 71.9669C228.909 71.9669 229.54 75.058 238.687 73.1718C242.683 72.3454 240.277 75.4869 236.227 77.3668C232.902 78.9123 225.446 79.3066 225.323 77.1776C225.008 71.6736 229.247 73.3453 228.941 71.9669C228.663 70.7242 226.764 69.5067 225.515 66.4661C224.421 63.8166 210.502 43.4724 229.376 46.491C230.07 46.349 224.456 28.5124 206.792 28.2537C189.129 27.9951 189.688 49.97 189.688 49.97" stroke="#EDEDED" stroke-width="2.25836" stroke-linecap="round" stroke-linejoin="bevel"/>
<path d="M199.961 73.8532C197.501 76.6036 198.226 77.0862 193.306 78.0987C188.328 79.1238 191.255 80.95 193.16 81.4295C195.476 82.0098 200.831 82.8299 204.452 77.7612C205.556 76.2157 204.446 73.7554 202.932 73.1309C202.2 72.8281 201.222 72.4496 199.967 73.8564L199.961 73.8532Z" stroke="#EDEDED" stroke-width="2.25836" stroke-linejoin="round"/>
<path d="M199.8 73.806C199.548 72.1879 200.33 70.2671 201.166 68.015C202.421 64.6401 205.317 61.2651 203.001 50.5505C201.276 42.5706 189.691 48.8883 189.691 49.9702C189.691 51.052 190.215 55.4584 189.502 60.5839C188.565 67.2769 193.76 72.9355 199.74 72.3582" stroke="#EDEDED" stroke-width="2.25836" stroke-linecap="round" stroke-linejoin="round"/>
<path d="M197.043 49.8094C196.99 50.1784 197.721 51.1656 198.671 51.2981C199.62 51.4306 200.431 50.661 200.484 50.2888C200.538 49.9166 199.806 49.5129 198.857 49.3804C197.908 49.2479 197.091 49.4435 197.043 49.8094Z" fill="#EDEDED" stroke="#EDEDED" stroke-width="0.753839"/>
<path d="M225.948 49.0555C225.998 49.4245 225.27 50.4117 224.32 50.5442C223.371 50.6767 222.554 49.9071 222.507 49.5349C222.46 49.1627 223.185 48.759 224.134 48.6265C225.084 48.494 225.901 48.6896 225.948 49.0555Z" fill="#EDEDED" stroke="#EDEDED" stroke-width="0.375342"/>
<path d="M229.342 46.4972C229.5 49.399 228.717 51.3703 228.616 54.4582C228.471 58.9434 230.755 64.0784 227.314 69.2196" stroke="#EDEDED" stroke-width="2.25836" stroke-linecap="round" stroke-linejoin="round"/>
</g>
<rect x="291" y="53.8506" width="79" height="79" rx="8.90141" fill="#EDEDED"/>
<path fill-rule="evenodd" clip-rule="evenodd" d="M299.428 104.374H301.489V96.2088L304.708 103.327C305.072 104.183 305.596 104.5 306.61 104.5C307.624 104.5 308.117 104.183 308.494 103.327L311.696 96.2088V104.374H313.773V96.2088C313.773 95.4164 313.456 95.0351 312.79 94.829C311.221 94.3535 310.174 94.7657 309.699 95.8275L306.544 102.867L303.5 95.8275C303.04 94.7657 301.977 94.3535 300.392 94.829C299.742 95.0351 299.425 95.416 299.425 96.2088L299.425 104.374H299.428ZM315.489 97.7307H317.566V102.218C317.55 102.471 317.645 103.042 318.774 103.057C319.36 103.073 323.245 103.057 323.276 103.057V97.6988H325.353V105.039C325.353 106.847 323.115 107.243 322.071 107.259H315.54V105.88H322.088C323.42 105.737 323.261 105.072 323.261 104.85V104.31H318.869C316.824 104.294 315.508 103.391 315.493 102.36V97.73L315.489 97.7307ZM360.04 92.5303C358.772 92.4983 357.789 92.6255 356.964 92.9745C356.727 93.0704 356.346 93.0704 356.315 93.371C356.441 93.4972 356.457 93.7036 356.568 93.8785C356.758 94.1958 357.091 94.6233 357.392 94.845C357.726 95.0991 358.059 95.3524 358.407 95.5745C359.025 95.9547 359.723 96.1768 360.325 96.5574C360.674 96.7795 361.022 97.0648 361.371 97.3029C361.549 97.4298 361.657 97.6362 361.879 97.7151V97.6671C361.768 97.525 361.736 97.3189 361.626 97.1597C361.467 97.0016 361.308 96.8584 361.149 96.7002C360.69 96.0819 360.119 95.5425 359.501 95.0991C358.993 94.7501 357.884 94.2747 357.678 93.6883L357.646 93.6564C357.995 93.6244 358.407 93.4975 358.74 93.4023C359.28 93.2601 359.771 93.2914 360.325 93.1489C360.579 93.085 360.832 93.0061 361.086 92.9268V92.7847C360.801 92.4994 360.595 92.1188 360.294 91.8494C359.486 91.1519 358.597 90.47 357.678 89.8993C357.186 89.5823 356.552 89.3759 356.029 89.1069C355.838 89.0116 355.521 88.964 355.411 88.8055C355.124 88.4573 354.966 87.9971 354.76 87.5846C354.301 86.7126 353.857 85.7457 353.46 84.826C353.175 84.2077 353 83.5894 352.652 83.0188C351.019 80.3235 349.243 78.6907 346.516 77.0891C345.93 76.7562 345.232 76.613 344.49 76.4388L343.301 76.3749C343.047 76.264 342.794 75.9627 342.572 75.8198C341.668 75.2491 339.338 74.0125 338.671 75.6457C338.243 76.6762 339.306 77.6907 339.666 78.2141C339.936 78.5787 340.285 78.9909 340.475 79.4031C340.582 79.6725 340.618 79.9582 340.729 80.2435C340.982 80.9411 341.22 81.7182 341.553 82.3685C341.731 82.7014 341.917 83.0507 342.139 83.3517C342.266 83.5258 342.488 83.6054 342.536 83.8908C342.314 84.2081 342.298 84.6832 342.171 85.0801C341.6 86.8718 341.823 89.0912 342.631 90.4067C342.885 90.8029 343.484 91.6753 344.296 91.342C345.01 91.0567 344.85 90.153 345.057 89.3602C345.104 89.1701 345.072 89.0433 345.167 88.9161V88.948L345.818 90.2639C346.309 91.0407 347.165 91.8494 347.879 92.3888C348.259 92.6742 348.56 93.166 349.036 93.3401V93.2921H349.004C348.909 93.15 348.766 93.086 348.639 92.9752C348.354 92.6898 348.037 92.3409 347.815 92.0239C347.149 91.1363 346.563 90.153 346.04 89.1385C345.786 88.6471 345.564 88.108 345.358 87.6166C345.262 87.4261 345.262 87.1404 345.104 87.0459C344.866 87.3941 344.518 87.6962 344.343 88.124C344.041 88.8055 344.01 89.6459 343.899 90.518C343.835 90.5339 343.864 90.518 343.835 90.5499C343.328 90.4234 343.154 89.8997 342.964 89.4562C342.488 88.3305 342.408 86.5232 342.821 85.223C342.932 84.89 343.408 83.8435 343.218 83.5265C343.122 83.2252 342.805 83.0511 342.631 82.813C342.424 82.5117 342.203 82.1315 342.06 81.7985C341.68 80.9101 341.49 79.9276 341.077 79.0396C340.887 78.6274 340.554 78.1992 340.284 77.819C339.983 77.3908 339.651 77.0895 339.413 76.5824C339.333 76.4083 339.222 76.1226 339.349 75.9321C339.381 75.8053 339.445 75.758 339.571 75.726C339.777 75.5519 340.364 75.7736 340.57 75.8682C341.156 76.1062 341.648 76.328 342.139 76.6606C342.361 76.8191 342.599 77.1204 342.885 77.2H343.218C343.725 77.3109 344.296 77.232 344.771 77.3741C345.611 77.6442 346.372 78.04 347.054 78.4686C349.131 79.7844 350.844 81.6553 352.001 83.8911C352.191 84.2557 352.27 84.5887 352.445 84.9692C352.778 85.7464 353.19 86.5388 353.523 87.3003C353.856 88.0455 354.173 88.807 354.648 89.4253C354.886 89.7582 355.837 89.9323 356.265 90.1068C356.582 90.249 357.074 90.3769 357.36 90.551C357.898 90.884 358.437 91.2645 358.944 91.6291C359.198 91.8189 359.991 92.2154 360.038 92.5317L360.04 92.5303ZM343.872 78.7528C343.653 78.7509 343.434 78.7775 343.222 78.8321V78.8641H343.253C343.38 79.1178 343.602 79.2923 343.761 79.5143L344.126 80.2755L344.157 80.2435C344.379 80.085 344.49 79.8313 344.49 79.4511C344.395 79.3402 344.38 79.229 344.3 79.1181C344.205 78.9597 343.999 78.8801 343.872 78.7536V78.7528Z" fill="#00678C"/>
<path fill-rule="evenodd" clip-rule="evenodd" d="M326.936 104.374H332.897C333.595 104.374 334.261 104.232 334.8 103.977C335.703 103.565 336.132 103.011 336.132 102.281V100.759C336.132 100.173 335.64 99.6177 334.658 99.2375C334.15 99.0474 333.516 98.9362 332.898 98.9362H330.392C329.552 98.9362 329.156 98.6821 329.045 98.1278C329.029 98.0645 329.029 98.0009 329.029 97.9377V97.0021C329.029 96.9541 329.029 96.8912 329.045 96.8279C329.156 96.3997 329.378 96.2885 330.111 96.2096H336.214V94.8298H330.412C329.571 94.8298 329.127 94.8778 328.731 95.0047C327.51 95.3849 326.971 95.9875 326.971 97.0493V98.255C326.971 99.1896 328.017 99.983 329.793 100.173C329.983 100.189 330.189 100.189 330.395 100.189H332.536C332.615 100.189 332.694 100.189 332.757 100.205C333.408 100.268 333.693 100.379 333.883 100.617C334.01 100.743 334.042 100.855 334.042 100.998V102.202C334.042 102.344 333.947 102.535 333.757 102.694C333.566 102.852 333.264 102.963 332.868 102.979C332.789 102.979 332.742 102.995 332.662 102.995H326.936V104.374ZM349.037 101.98C349.037 103.391 350.103 104.183 352.224 104.342C352.43 104.358 352.62 104.374 352.826 104.374H358.217V102.995H352.779C351.574 102.995 351.114 102.694 351.114 101.964V94.8298H349.033V101.98L349.037 101.98ZM337.447 102.043V97.1286C337.447 95.876 338.335 95.1145 340.064 94.8771C340.254 94.8611 340.444 94.8451 340.618 94.8451H344.549C344.756 94.8451 344.93 94.8611 345.136 94.8771C346.864 95.1145 347.736 95.8756 347.736 97.1286V102.043C347.736 103.057 347.372 103.597 346.515 103.962L348.544 105.8H346.151L344.502 104.31L342.837 104.406H340.617C340.21 104.404 339.806 104.351 339.412 104.248C338.097 103.882 337.447 103.185 337.447 102.043ZM339.682 101.933C339.682 101.996 339.718 102.059 339.73 102.139C339.841 102.709 340.38 103.027 341.204 103.027H343.075L341.363 101.473H343.757L345.263 102.836C345.549 102.678 345.723 102.456 345.786 102.17C345.802 102.107 345.802 102.028 345.802 101.964V97.2551C345.802 97.1918 345.802 97.1289 345.786 97.065C345.675 96.5263 345.137 96.2253 344.328 96.2253H341.205C340.285 96.2253 339.683 96.6215 339.683 97.2551L339.682 101.933Z" fill="#CE8B2C"/>
<defs>
<radialGradient id="paint0_radial_313_274" cx="0" cy="0" r="1" gradientUnits="userSpaceOnUse" gradientTransform="translate(27.7367 199.123) scale(42.0138 42.0138)">
<stop stop-color="#AEB2D5"/>
<stop offset="0.3" stop-color="#AEB2D5"/>
<stop offset="0.75" stop-color="#484C89"/>
<stop offset="1" stop-color="#484C89"/>
</radialGradient>
<clipPath id="clip0_313_274">
<rect width="62.586" height="54.0294" fill="white" transform="translate(291.028 191.458)"/>
</clipPath>
<clipPath id="clip1_313_274">
<rect width="80.7459" height="80.7459" fill="white" transform="translate(164.486 24.1189)"/>
</clipPath>
</defs>
</svg>
